<?xml version="1.0" encoding="UTF-8"?>
<svg version="1.1" xmlns="http://www.w3.org/2000/svg" width="32" height="32">
<path d="M0 0 C3.55247432 0.87379409 4.94828114 2.4927342 6.9375 5.4765625 C7.63597125 8.3162489 7.63597125 10.6368761 6.9375 13.4765625 C4.94828114 16.4603908 3.55247432 18.07933091 0 18.953125 C-3.92313492 19.23547183 -5.73362371 18.69581336 -9.0625 16.4765625 C-11.28175086 13.14768621 -11.82140933 11.33719742 -11.5390625 7.4140625 C-10.07519871 1.46261629 -5.59135555 -0.40240816 0 0 Z " fill="#FCC560" transform="translate(18.0625,6.5234375)"/>
<path d="M0 0 C1.62890625 0.8125 1.62890625 0.8125 3.5625 2 C8.24904505 4.4625664 11.94756538 4.38317602 17 3 C19.96048102 1.59618965 19.96048102 1.59618965 22 0 C22.66 0.66 23.32 1.32 24 2 C18.56271268 6.71231568 15.50051154 8.5000341 8 8 C3.43235807 6.47745269 0.47583905 5.22349015 -2 1 C-1.34 0.67 -0.68 0.34 0 0 Z " fill="#4777C1" transform="translate(5,24)"/>
<path d="M0 0 C0 0.99 0 1.98 0 3 C-1.093125 3.391875 -2.18625 3.78375 -3.3125 4.1875 C-5.8552886 5.30447394 -7.02244631 6.02461853 -8.9375 8.125 C-10.41382076 12.1197503 -10.24772058 15.78875012 -10 20 C-10.99 20.33 -11.98 20.66 -13 21 C-14.61244249 17.77511502 -14.45527644 14.496776 -14 11 C-11.61109309 4.54735471 -7.30257297 -0.83457977 0 0 Z " fill="#4978C2" transform="translate(14,1)"/>
<path d="M0 0 C4.87773605 0.45374289 7.52177888 1.52177888 11 5 C13.86557317 9.44657906 14.39614654 12.75105833 14 18 C13.67 18.99 13.34 19.98 13 21 C12.01 20.67 11.02 20.34 10 20 C10.061875 18.80375 10.12375 17.6075 10.1875 16.375 C10.15789938 12.19391221 9.50015858 9.46796189 7 6 C4.69598995 4.64319408 2.55628426 3.86817201 0 3 C0 2.01 0 1.02 0 0 Z " fill="#4576C1" transform="translate(18,1)"/>
<path d="M0 0 C0.33 0 0.66 0 1 0 C1.125 6.625 1.125 6.625 0 10 C-0.99 9.67 -1.98 9.34 -3 9 C-2.01 6.03 -1.02 3.06 0 0 Z " fill="#507DC4" transform="translate(31,12)"/>
</svg>
