<?xml version="1.0" encoding="UTF-8"?>
<svg version="1.1" xmlns="http://www.w3.org/2000/svg" width="300" height="112" style="transform: scale(1.3)">
<path d="M0 0 C5.42894577 4.56328243 8.47558813 9.50592305 9.71484375 16.44140625 C10.078587 23.95163452 8.56808025 29.66750158 3.71484375 35.44140625 C-1.61857376 40.8960378 -7.38496977 43.0308603 -14.84765625 43.81640625 C-21.46919764 43.09405628 -27.06038725 40.5974725 -32.28515625 36.44140625 C-33.65349473 34.46519078 -34.99162928 32.46737904 -36.28515625 30.44140625 C-37.26387695 30.76939209 -38.24259766 31.09737793 -39.25097656 31.43530273 C-42.88832348 32.65379303 -46.52633584 33.87028581 -50.16455078 35.08618164 C-51.73797485 35.61233076 -53.31121885 36.13901869 -54.88427734 36.66625977 C-57.14763827 37.42476448 -59.41164338 38.18131811 -61.67578125 38.9375 C-62.37697083 39.17295029 -63.0781604 39.40840057 -63.80059814 39.65098572 C-66.93918519 40.69730106 -70.05573027 41.71369928 -73.28515625 42.44140625 C-73.23875 43.28703125 -73.19234375 44.13265625 -73.14453125 45.00390625 C-72.8825418 53.23786054 -73.26126852 58.87544038 -78.79296875 65.15234375 C-83.72521374 69.855182 -89.19558415 72.30139237 -96.0234375 72.53515625 C-103.00665199 72.14880967 -109.12798376 70.80249411 -114.0390625 65.57421875 C-119.78710898 58.23334012 -121.384114 51.73049126 -120.28515625 42.44140625 C-118.06360946 35.05347157 -114.03385197 30.1318976 -107.28515625 26.44140625 C-100.06705527 23.65547254 -93.69918989 23.78559406 -86.5 26.39453125 C-81.87341575 28.58134709 -78.18180572 31.41292057 -76.09375 36.13671875 C-75.82691406 36.89726563 -75.56007812 37.6578125 -75.28515625 38.44140625 C-74.11082031 38.00570312 -72.93648437 37.57 -71.7265625 37.12109375 C-70.10037634 36.51921795 -68.47406482 35.91768078 -66.84765625 35.31640625 C-65.9983252 35.0023584 -65.14899414 34.68831055 -64.27392578 34.36474609 C-57.69263277 31.93993074 -51.08781367 29.58919486 -44.45532227 27.30810547 C-41.10936471 26.33437045 -41.10936471 26.33437045 -38.28515625 24.44140625 C-38.2910876 22.92001381 -38.3405466 21.39871697 -38.41015625 19.87890625 C-38.46424698 13.56832152 -36.89642073 9.10618982 -33.66015625 3.75390625 C-24.48323076 -5.1815212 -10.7661623 -7.72785883 0 0 Z " fill="#47169F" transform="translate(194.28515625,21.55859375)"/>
<path d="M0 0 C0.99 0 1.98 0 3 0 C3 0.66 3 1.32 3 2 C5.22926402 2 7.45883857 1.98932934 9.6875 1.9375 C12 2 12 2 13 3 C13.14115161 5.67058851 13.04247107 8.32432238 13 11 C5 11 5 11 2.4375 10.4375 C1.633125 10.293125 0.82875 10.14875 0 10 C-0.33 10.33 -0.66 10.66 -1 11 C-3.31074168 11.09932392 -5.62462942 11.12969618 -7.9375 11.125 C-9.83822266 11.12886719 -9.83822266 11.12886719 -11.77734375 11.1328125 C-15 11 -15 11 -17 10 C-17 8.35 -17 6.7 -17 5 C-17.66 5 -18.32 5 -19 5 C-19 6.98 -19 8.96 -19 11 C-20.64574566 11.02688151 -22.29161413 11.04634123 -23.9375 11.0625 C-24.85402344 11.07410156 -25.77054688 11.08570312 -26.71484375 11.09765625 C-29 11 -29 11 -30 10 C-30.1875 7.0625 -30.1875 7.0625 -30 4 C-28 2 -28 2 -25.29443359 1.77294922 C-24.17375488 1.78342285 -23.05307617 1.79389648 -21.8984375 1.8046875 C-20.08085937 1.81435547 -20.08085937 1.81435547 -18.2265625 1.82421875 C-16.95554688 1.84097656 -15.68453125 1.85773438 -14.375 1.875 C-13.09625 1.88402344 -11.8175 1.89304687 -10.5 1.90234375 C-7.33314833 1.92597697 -4.16666576 1.95892371 -1 2 C-0.67 1.34 -0.34 0.68 0 0 Z M-9 4 C-9 4.66 -9 5.32 -9 6 C-8.34 5.67 -7.68 5.34 -7 5 C-7.66 4.67 -8.32 4.34 -9 4 Z M-26 5 C-26 5.99 -26 6.98 -26 8 C-25.01 8 -24.02 8 -23 8 C-23 7.01 -23 6.02 -23 5 C-23.99 5 -24.98 5 -26 5 Z M3 5 C3.33 5.99 3.66 6.98 4 8 C4.33 7.01 4.66 6.02 5 5 C4.34 5 3.68 5 3 5 Z " fill="#131197" transform="translate(191,82)"/>
<path d="M0 0 C3.62535141 1.647887 6.20557709 3.41115419 8 7 C8.66786547 10.84573081 8.87752866 14.37942983 6.98046875 17.8828125 C4.84579702 20.55276445 3.26005253 21.91331582 0 23 C-5.01103128 23.3711875 -7.99128499 23.11788946 -12 20 C-14.84429101 17.35186699 -14.9975247 16.02599069 -15.375 12.0625 C-15.21430764 8.30369614 -14.44818846 5.95471021 -12 3 C-8.06538376 -0.16955197 -4.97922113 -0.53348798 0 0 Z M-10 6 C-11.74693992 8.38219081 -12.02276273 9.54474533 -11.875 12.5 C-10.7890162 15.60281085 -9.58979448 16.98571541 -7 19 C-3.74139356 20.25331017 -2.52686102 20.23279906 0.6875 18.8125 C3.10691767 16.91619967 4.13788786 15.93118128 5 13 C4.83901949 9.78038973 4.23571258 8.30305903 2.25 5.75 C-2.3553436 2.16806609 -5.45263302 2.43584751 -10 6 Z " fill="#C5C5C5" transform="translate(57,59)"/>
<path d="M0 0 C5.28 0 10.56 0 16 0 C16 0.99 16 1.98 16 3 C12.04 3 8.08 3 4 3 C4 4.98 4 6.96 4 9 C7.3 9 10.6 9 14 9 C14 10.32 14 11.64 14 13 C10.7 13 7.4 13 4 13 C4 14.98 4 16.96 4 19 C8.29 19 12.58 19 17 19 C17 19.99 17 20.98 17 22 C11.39 22 5.78 22 0 22 C0 14.74 0 7.48 0 0 Z " fill="#C5C5C5" transform="translate(213,30)"/>
<path d="M0 0 C2.9375 1.5 2.9375 1.5 5 3 C4.67 3.99 4.34 4.98 4 6 C3.484375 5.835 2.96875 5.67 2.4375 5.5 C-0.83960853 4.82777261 -3.66389912 4.6967181 -7 5 C-9.09764165 6.51894806 -9.09764165 6.51894806 -10 9 C-10.28157309 12.44927034 -10.09682402 14.70952793 -9 18 C-3.23543888 19.12032598 -3.23543888 19.12032598 2 17 C2.99 17 3.98 17 5 17 C4.6875 18.875 4.6875 18.875 4 21 C-0.03160965 23.68773977 -3.26423878 23.67415933 -8 23 C-11.08954459 21.22515524 -12.53214578 19.76557963 -14.375 16.75 C-15.238018 12.95272078 -15.18915237 9.72550901 -14 6 C-9.57124738 0.66278531 -6.88030007 -0.46646102 0 0 Z " fill="#C5C5C5" transform="translate(254,30)"/>
<path d="M0 0 C2.9375 1.5 2.9375 1.5 5 3 C4.67 3.99 4.34 4.98 4 6 C0 5 0 5 -1.9375 4.25 C-5.00140233 3.8786179 -6.54528723 5.2750667 -9 7 C-10.38929654 8.16247951 -10.38929654 8.16247951 -10.125 11.375 C-10.17300461 14.95322972 -10.17300461 14.95322972 -9 18 C-3.23543888 19.12032598 -3.23543888 19.12032598 2 17 C2.99 17 3.98 17 5 17 C4.67012361 19.47407292 4.42027913 20.6637767 2.4375 22.25 C-1.07754317 23.33155174 -4.38795767 23.58166089 -8 23 C-11.02899973 21.22210886 -12.5538292 19.73009767 -14.375 16.75 C-15.23736321 12.95560187 -15.05886501 9.74384413 -14 6 C-10.25080032 0.12625383 -6.77985468 -0.46757618 0 0 Z " fill="#C5C5C5" transform="translate(28,59)"/>
<path d="M0 0 C0.99 0 1.98 0 3 0 C3.33 0.99 3.66 1.98 4 3 C4.62648438 3 5.25296875 3 5.8984375 3 C8.93229167 3 11.96614583 3 15 3 C15.845625 2.979375 16.69125 2.95875 17.5625 2.9375 C20 3 20 3 21 4 C21.14115161 6.67058851 21.04247107 9.32432238 21 12 C14 12 7 12 0 12 C0 8.04 0 4.08 0 0 Z " fill="#7715A6" transform="translate(265,81)"/>
<path d="M0 0 C5 0 10 0 15 0 C16.03125 -0.020625 17.0625 -0.04125 18.125 -0.0625 C21 0 21 0 22 1 C22.125 4.5 22.125 4.5 22 8 C21 9 21 9 18.0625 9.0625 C16.5465625 9.0315625 16.5465625 9.0315625 15 9 C14.34 9 13.68 9 13 9 C8.66666667 9 4.33333333 9 0 9 C0 6.03 0 3.06 0 0 Z M17 3 C17.33 3.99 17.66 4.98 18 6 C18 5.01 18 4.02 18 3 C17.67 3 17.34 3 17 3 Z " fill="#7715A6" transform="translate(208,84)"/>
<path d="M0 0 C0.99 0 1.98 0 3 0 C3 7.26 3 14.52 3 22 C-1.1746088 20.9563478 -1.51796118 20.84955499 -3.796875 17.62109375 C-4.28027344 16.94755859 -4.76367188 16.27402344 -5.26171875 15.58007812 C-5.75285156 14.87302734 -6.24398437 14.16597656 -6.75 13.4375 C-7.25660156 12.72658203 -7.76320312 12.01566406 -8.28515625 11.28320312 C-9.53312303 9.52898568 -10.76785497 7.76536641 -12 6 C-12.33 10.95 -12.66 15.9 -13 21 C-13.66 21 -14.32 21 -15 21 C-15 14.4 -15 7.8 -15 1 C-10.05459381 2.23635155 -8.59228369 4.64196624 -5.75 8.5625 C-5.29109375 9.17802734 -4.8321875 9.79355469 -4.359375 10.42773438 C-3.23028585 11.94494792 -2.11388857 13.47159183 -1 15 C-0.67 10.05 -0.34 5.1 0 0 Z " fill="#EBDEF2" transform="translate(186,30)"/>
<path d="M0 0 C4.40120114 2.20060057 6.42428498 4.78071329 9.25 8.625 C9.70890625 9.23601562 10.1678125 9.84703125 10.640625 10.4765625 C11.76751252 11.9790792 12.88472437 13.48884409 14 15 C14.33 10.05 14.66 5.1 15 0 C15.66 0 16.32 0 17 0 C17 7.26 17 14.52 17 22 C13.69644344 20.89881448 13.24248745 20.33948243 11.30078125 17.62109375 C10.81416016 16.94755859 10.32753906 16.27402344 9.82617188 15.58007812 C9.32666016 14.87302734 8.82714844 14.16597656 8.3125 13.4375 C7.80138672 12.72658203 7.29027344 12.01566406 6.76367188 11.28320312 C5.50244054 9.52690902 4.25034113 7.76406364 3 6 C2.67 11.28 2.34 16.56 2 22 C1.34 22 0.68 22 0 22 C0 14.74 0 7.48 0 0 Z " fill="#F3F3FA" transform="translate(89,59)"/>
<path d="M0 0 C3.3 0 6.6 0 10 0 C10 0.99 10 1.98 10 3 C10.969375 2.979375 11.93875 2.95875 12.9375 2.9375 C16 3 16 3 17 4 C17.125 7.5 17.125 7.5 17 11 C16 12 16 12 13.0625 12.1875 C10 12 10 12 8 10 C8.375 6.875 8.375 6.875 9 4 C8.34 4 7.68 4 7 4 C7 6.64 7 9.28 7 12 C5.68 12 4.36 12 3 12 C3 9.36 3 6.72 3 4 C2.01 4 1.02 4 0 4 C0 2.68 0 1.36 0 0 Z M12 6 C12.33 6.99 12.66 7.98 13 9 C13 8.01 13 7.02 13 6 C12.67 6 12.34 6 12 6 Z " fill="#131197" transform="translate(140,81)"/>
<path d="M0 0 C0.99 0 1.98 0 3 0 C3.33 0.66 3.66 1.32 4 2 C4.33 1.34 4.66 0.68 5 0 C5.99 0 6.98 0 8 0 C8.33 0.99 8.66 1.98 9 3 C9 2.01 9 1.02 9 0 C10.99954746 -0.04254356 13.00041636 -0.04080783 15 0 C16 1 16 1 16.09765625 2.84765625 C16.06510417 4.8984375 16.03255208 6.94921875 16 9 C4.8 9 4.8 9 1 8 C-0.35439668 5.29120665 -0.06501451 2.99066732 0 0 Z " fill="#7715A6" transform="translate(248,84)"/>
<path d="M0 0 C5.94 0 11.88 0 18 0 C18 0.99 18 1.98 18 3 C15.36 3 12.72 3 10 3 C10 9.27 10 15.54 10 22 C9.01 22 8.02 22 7 22 C7 15.73 7 9.46 7 3 C4.69 3 2.38 3 0 3 C0 2.01 0 1.02 0 0 Z " fill="#C5C5C5" transform="translate(269,30)"/>
<path d="M0 0 C2.33333333 0 4.66666667 0 7 0 C7.845625 -0.020625 8.69125 -0.04125 9.5625 -0.0625 C12 0 12 0 13 1 C13.14115161 3.67058851 13.04247107 6.32432238 13 9 C10.125 9.125 10.125 9.125 7 9 C6.34 8.34 5.68 7.68 5 7 C5 5.68 5 4.36 5 3 C4.34 3 3.68 3 3 3 C3 4.98 3 6.96 3 9 C2.01 9 1.02 9 0 9 C0 6.03 0 3.06 0 0 Z " fill="#7715A6" transform="translate(231,84)"/>
<path d="M0 0 C4 1 4 1 5.75 3.5625 C6.1625 4.366875 6.575 5.17125 7 6 C5.68 5.67 4.36 5.34 3 5 C2.67 9.95 2.34 14.9 2 20 C1.34 20 0.68 20 0 20 C0 13.4 0 6.8 0 0 Z " fill="#FCFAFD" transform="translate(171,31)"/>
</svg>