<?xml version="1.0" encoding="UTF-8"?>
<svg version="1.1" xmlns="http://www.w3.org/2000/svg" width="512" height="512">
<path d="M0 0 C20.46 0 40.92 0 62 0 C62 0.66 62 1.32 62 2 C67.61 2 73.22 2 79 2 C79 2.99 79 3.98 79 5 C82.3 5 85.6 5 89 5 C89 5.66 89 6.32 89 7 C92.3 7 95.6 7 99 7 C99 7.66 99 8.32 99 9 C101.31 9.33 103.62 9.66 106 10 C106 10.66 106 11.32 106 12 C108.31 12 110.62 12 113 12 C113 12.66 113 13.32 113 14 C114.65 14 116.3 14 118 14 C118 14.99 118 15.98 118 17 C119.65 17 121.3 17 123 17 C123 17.66 123 18.32 123 19 C124.65 19 126.3 19 128 19 C128 19.99 128 20.98 128 22 C129.65 22 131.3 22 133 22 C133 22.66 133 23.32 133 24 C134.65 24 136.3 24 138 24 C138 24.99 138 25.98 138 27 C139.65 27 141.3 27 143 27 C143 27.66 143 28.32 143 29 C144.32 29 145.64 29 147 29 C147 29.66 147 30.32 147 31 C147.99 31 148.98 31 150 31 C150 31.99 150 32.98 150 34 C151.32 34 152.64 34 154 34 C154 34.66 154 35.32 154 36 C154.99 36 155.98 36 157 36 C157 36.99 157 37.98 157 39 C157.99 39 158.98 39 160 39 C160 39.66 160 40.32 160 41 C161.32 41 162.64 41 164 41 C164 41.99 164 42.98 164 44 C164.99 44 165.98 44 167 44 C167 44.66 167 45.32 167 46 C168.65 46.66 170.3 47.32 172 48 C172 48.99 172 49.98 172 51 C172.66 51 173.32 51 174 51 C174 51.66 174 52.32 174 53 C174.99 53 175.98 53 177 53 C177 53.99 177 54.98 177 56 C177.66 56 178.32 56 179 56 C179 56.66 179 57.32 179 58 C179.99 58 180.98 58 182 58 C182 58.99 182 59.98 182 61 C182.66 61 183.32 61 184 61 C184 61.66 184 62.32 184 63 C184.99 63 185.98 63 187 63 C187 63.99 187 64.98 187 66 C187.66 66 188.32 66 189 66 C189 66.66 189 67.32 189 68 C189.66 68 190.32 68 191 68 C191 68.66 191 69.32 191 70 C191.99 70 192.98 70 194 70 C194 70.99 194 71.98 194 73 C194.66 73 195.32 73 196 73 C196 73.66 196 74.32 196 75 C196.99 75.33 197.98 75.66 199 76 C199 77.32 199 78.64 199 80 C199.66 80 200.32 80 201 80 C201 80.99 201 81.98 201 83 C201.99 83 202.98 83 204 83 C204 83.66 204 84.32 204 85 C204.66 85 205.32 85 206 85 C206 86.65 206 88.3 206 90 C206.99 90 207.98 90 209 90 C209 90.99 209 91.98 209 93 C209.66 93 210.32 93 211 93 C211 94.32 211 95.64 211 97 C211.66 97 212.32 97 213 97 C213 98.65 213 100.3 213 102 C213.99 102 214.98 102 216 102 C216 103.65 216 105.3 216 107 C216.66 107 217.32 107 218 107 C218 108.65 218 110.3 218 112 C218.99 112 219.98 112 221 112 C221 113.65 221 115.3 221 117 C221.66 117 222.32 117 223 117 C223 118.65 223 120.3 223 122 C223.99 122 224.98 122 226 122 C226 123.65 226 125.3 226 127 C226.66 127 227.32 127 228 127 C228 129.31 228 131.62 228 134 C228.66 134 229.32 134 230 134 C230 136.31 230 138.62 230 141 C230.99 141 231.98 141 233 141 C233 143.64 233 146.28 233 149 C233.66 149 234.32 149 235 149 C235 152.96 235 156.92 235 161 C235.99 161 236.98 161 238 161 C238 165.62 238 170.24 238 175 C238.66 175 239.32 175 240 175 C240 175.99 240 176.98 240 178 C242.31 178 244.62 178 247 178 C247 177.01 247 176.02 247 175 C249.31 175 251.62 175 254 175 C254 174.34 254 173.68 254 173 C256.31 173 258.62 173 261 173 C261 172.01 261 171.02 261 170 C262.98 170 264.96 170 267 170 C267 169.34 267 168.68 267 168 C269.31 168 271.62 168 274 168 C274 167.34 274 166.68 274 166 C276.31 165.67 278.62 165.34 281 165 C281 164.34 281 163.68 281 163 C284.3 163 287.6 163 291 163 C291 212.5 291 262 291 313 C290.34 313 289.68 313 289 313 C289 318.61 289 324.22 289 330 C288.34 330 287.68 330 287 330 C287 332.97 287 335.94 287 339 C286.01 339.33 285.02 339.66 284 340 C284 342.97 284 345.94 284 349 C283.34 349 282.68 349 282 349 C282 351.31 282 353.62 282 356 C281.01 356.33 280.02 356.66 279 357 C279 359.31 279 361.62 279 364 C278.34 364 277.68 364 277 364 C277 365.65 277 367.3 277 369 C276.01 369 275.02 369 274 369 C274 371.31 274 373.62 274 376 C273.34 376 272.68 376 272 376 C272 377.65 272 379.3 272 381 C271.01 381 270.02 381 269 381 C269 382.65 269 384.3 269 386 C268.34 386 267.68 386 267 386 C267 387.32 267 388.64 267 390 C266.34 390 265.68 390 265 390 C265 390.99 265 391.98 265 393 C264.01 393 263.02 393 262 393 C262 394.65 262 396.3 262 398 C261.34 398 260.68 398 260 398 C259.67 398.99 259.34 399.98 259 401 C258.34 401 257.68 401 257 401 C257 402.32 257 403.64 257 405 C256.34 405 255.68 405 255 405 C255 405.99 255 406.98 255 408 C254.01 408 253.02 408 252 408 C252 409.65 252 411.3 252 413 C251.34 413 250.68 413 250 413 C250 413.66 250 414.32 250 415 C249.34 415 248.68 415 248 415 C247.67 415.99 247.34 416.98 247 418 C246.34 418 245.68 418 245 418 C245 419.32 245 420.64 245 422 C244.34 422 243.68 422 243 422 C242.67 422.99 242.34 423.98 242 425 C241.34 425 240.68 425 240 425 C240 425.66 240 426.32 240 427 C239.34 427 238.68 427 238 427 C238 427.99 238 428.98 238 430 C237.01 430 236.02 430 235 430 C235 430.66 235 431.32 235 432 C234.34 432 233.68 432 233 432 C233 432.99 233 433.98 233 435 C232.01 435 231.02 435 230 435 C230 435.66 230 436.32 230 437 C229.34 437 228.68 437 228 437 C227.34 438.65 226.68 440.3 226 442 C225.01 442 224.02 442 223 442 C223 442.66 223 443.32 223 444 C222.01 444 221.02 444 220 444 C220 444.66 220 445.32 220 446 C218.68 446.33 217.36 446.66 216 447 C216 447.66 216 448.32 216 449 C215.01 449 214.02 449 213 449 C213 449.99 213 450.98 213 452 C212.34 452 211.68 452 211 452 C211 452.66 211 453.32 211 454 C209.35 454 207.7 454 206 454 C206 454.99 206 455.98 206 457 C205.34 457 204.68 457 204 457 C204 457.66 204 458.32 204 459 C202.35 459 200.7 459 199 459 C199 459.66 199 460.32 199 461 C198.01 461 197.02 461 196 461 C196 461.99 196 462.98 196 464 C194.35 464 192.7 464 191 464 C191 464.66 191 465.32 191 466 C189.68 466 188.36 466 187 466 C187 466.99 187 467.98 187 469 C183.91190305 470.76462683 182.76687864 471 179 471 C179 471.66 179 472.32 179 473 C176.69 473.33 174.38 473.66 172 474 C172 474.66 172 475.32 172 476 C170.35 476 168.7 476 167 476 C167 476.99 167 477.98 167 479 C165.35 479 163.7 479 162 479 C162 479.66 162 480.32 162 481 C159.69 481 157.38 481 155 481 C155 481.66 155 482.32 155 483 C152.36 483 149.72 483 147 483 C147 483.99 147 484.98 147 486 C144.03 486 141.06 486 138 486 C138 486.66 138 487.32 138 488 C134.04 488 130.08 488 126 488 C125.67 488.99 125.34 489.98 125 491 C119.39 491 113.78 491 108 491 C108 491.66 108 492.32 108 493 C91.17 493 74.34 493 57 493 C57 492.34 57 491.68 57 491 C51.06 491 45.12 491 39 491 C39 490.01 39 489.02 39 488 C35.04 488 31.08 488 27 488 C27 487.34 27 486.68 27 486 C24.03 486 21.06 486 18 486 C17.67 485.01 17.34 484.02 17 483 C14.69 483 12.38 483 10 483 C10 482.34 10 481.68 10 481 C7.69 481 5.38 481 3 481 C3 480.34 3 479.68 3 479 C1.35 479 -0.3 479 -2 479 C-2 478.01 -2 477.02 -2 476 C-4.31 476 -6.62 476 -9 476 C-9 475.34 -9 474.68 -9 474 C-10.65 474 -12.3 474 -14 474 C-14 473.01 -14 472.02 -14 471 C-15.65 471 -17.3 471 -19 471 C-19 470.34 -19 469.68 -19 469 C-20.65 469 -22.3 469 -24 469 C-24 468.01 -24 467.02 -24 466 C-24.99 466 -25.98 466 -27 466 C-27 465.34 -27 464.68 -27 464 C-28.32 464 -29.64 464 -31 464 C-31 463.01 -31 462.02 -31 461 C-32.65 461 -34.3 461 -36 461 C-36 460.34 -36 459.68 -36 459 C-36.99 459 -37.98 459 -39 459 C-39 458.34 -39 457.68 -39 457 C-40.32 456.67 -41.64 456.34 -43 456 C-43 455.34 -43 454.68 -43 454 C-43.99 454 -44.98 454 -46 454 C-46 453.34 -46 452.68 -46 452 C-46.66 452 -47.32 452 -48 452 C-48 451.01 -48 450.02 -48 449 C-49.65 449 -51.3 449 -53 449 C-53 448.34 -53 447.68 -53 447 C-53.99 447 -54.98 447 -56 447 C-56 446.01 -56 445.02 -56 444 C-56.66 444 -57.32 444 -58 444 C-58 443.34 -58 442.68 -58 442 C-58.99 442 -59.98 442 -61 442 C-61 441.34 -61 440.68 -61 440 C-61.66 440 -62.32 440 -63 440 C-63 439.01 -63 438.02 -63 437 C-63.99 437 -64.98 437 -66 437 C-66 436.34 -66 435.68 -66 435 C-66.66 435 -67.32 435 -68 435 C-68 434.01 -68 433.02 -68 432 C-68.66 432 -69.32 432 -70 432 C-70 431.34 -70 430.68 -70 430 C-70.99 430 -71.98 430 -73 430 C-73 429.01 -73 428.02 -73 427 C-73.66 427 -74.32 427 -75 427 C-75 426.34 -75 425.68 -75 425 C-75.99 425 -76.98 425 -78 425 C-78 424.01 -78 423.02 -78 422 C-78.66 422 -79.32 422 -80 422 C-80 421.34 -80 420.68 -80 420 C-80.66 420 -81.32 420 -82 420 C-82.33 418.35 -82.66 416.7 -83 415 C-83.66 415 -84.32 415 -85 415 C-85 414.34 -85 413.68 -85 413 C-85.66 413 -86.32 413 -87 413 C-87 412.01 -87 411.02 -87 410 C-87.99 410 -88.98 410 -90 410 C-90 408.35 -90 406.7 -90 405 C-90.66 405 -91.32 405 -92 405 C-92 404.34 -92 403.68 -92 403 C-92.99 403 -93.98 403 -95 403 C-95 401.35 -95 399.7 -95 398 C-95.66 398 -96.32 398 -97 398 C-97 397.34 -97 396.68 -97 396 C-97.99 395.67 -98.98 395.34 -100 395 C-100 393.68 -100 392.36 -100 391 C-100.66 391 -101.32 391 -102 391 C-102 389.35 -102 387.7 -102 386 C-102.99 385.67 -103.98 385.34 -105 385 C-105 383.68 -105 382.36 -105 381 C-105.66 381 -106.32 381 -107 381 C-107 379.35 -107 377.7 -107 376 C-107.66 376 -108.32 376 -109 376 C-109 374.35 -109 372.7 -109 371 C-109.99 371 -110.98 371 -112 371 C-112 369.35 -112 367.7 -112 366 C-112.66 366 -113.32 366 -114 366 C-114 363.69 -114 361.38 -114 359 C-114.99 359 -115.98 359 -117 359 C-117 356.69 -117 354.38 -117 352 C-117.66 352 -118.32 352 -119 352 C-119 348.7 -119 345.4 -119 342 C-119.99 342 -120.98 342 -122 342 C-122 338.7 -122 335.4 -122 332 C-122.66 332 -123.32 332 -124 332 C-124 327.38 -124 322.76 -124 318 C-124.66 318 -125.32 318 -126 318 C-126 314.7 -126 311.4 -126 308 C-126.66 308 -127.32 308 -128 308 C-128 308.66 -128 309.32 -128 310 C-129.65 310 -131.3 310 -133 310 C-133 310.66 -133 311.32 -133 312 C-135.31 312.33 -137.62 312.66 -140 313 C-140 313.66 -140 314.32 -140 315 C-142.64 315 -145.28 315 -148 315 C-148 315.66 -148 316.32 -148 317 C-150.31 317.33 -152.62 317.66 -155 318 C-155 318.66 -155 319.32 -155 320 C-157.31 320 -159.62 320 -162 320 C-162 320.66 -162 321.32 -162 322 C-164.31 322.33 -166.62 322.66 -169 323 C-169 323.66 -169 324.32 -169 325 C-171.97 325 -174.94 325 -178 325 C-178.02333532 306.12889192 -178.0409823 287.25778676 -178.05181217 268.38666725 C-178.05697378 259.62496077 -178.06401392 250.86326324 -178.07543945 242.1015625 C-178.08539041 234.46702677 -178.09185441 226.83249752 -178.09408849 219.19795549 C-178.0953949 215.15358514 -178.09847635 211.10923334 -178.10573006 207.06486893 C-178.11249674 203.26138057 -178.11461563 199.45791847 -178.11310768 195.65442467 C-178.11338372 194.25556356 -178.11538501 192.85670161 -178.11920547 191.45784569 C-178.12415274 189.55366011 -178.12239519 187.64946058 -178.12025452 185.74526978 C-178.12117631 184.6778335 -178.1220981 183.61039722 -178.12304783 182.5106144 C-178 180 -178 180 -177 178 C-176.34 178 -175.68 178 -175 178 C-175 173.05 -175 168.1 -175 163 C-174.34 163 -173.68 163 -173 163 C-173 159.04 -173 155.08 -173 151 C-172.01 151 -171.02 151 -170 151 C-170 148.69 -170 146.38 -170 144 C-169.34 144 -168.68 144 -168 144 C-168 141.36 -168 138.72 -168 136 C-167.01 136 -166.02 136 -165 136 C-165 133.69 -165 131.38 -165 129 C-164.34 129 -163.68 129 -163 129 C-163 126.69 -163 124.38 -163 122 C-162.34 122 -161.68 122 -161 122 C-161 120.35 -161 118.7 -161 117 C-160.01 117 -159.02 117 -158 117 C-158 115.35 -158 113.7 -158 112 C-157.34 112 -156.68 112 -156 112 C-156 110.35 -156 108.7 -156 107 C-155.01 107 -154.02 107 -153 107 C-153 105.35 -153 103.7 -153 102 C-152.34 102 -151.68 102 -151 102 C-150.67 100.35 -150.34 98.7 -150 97 C-149.34 97 -148.68 97 -148 97 C-148 96.34 -148 95.68 -148 95 C-147.34 95 -146.68 95 -146 95 C-146 93.35 -146 91.7 -146 90 C-145.34 90 -144.68 90 -144 90 C-143.505 88.515 -143.505 88.515 -143 87 C-142.34 87 -141.68 87 -141 87 C-141 85.68 -141 84.36 -141 83 C-140.34 83 -139.68 83 -139 83 C-139 82.01 -139 81.02 -139 80 C-138.01 80 -137.02 80 -136 80 C-136 79.34 -136 78.68 -136 78 C-135.34 78 -134.68 78 -134 78 C-134 76.35 -134 74.7 -134 73 C-133.01 73 -132.02 73 -131 73 C-131 72.01 -131 71.02 -131 70 C-130.34 70 -129.68 70 -129 70 C-129 69.34 -129 68.68 -129 68 C-128.01 68 -127.02 68 -126 68 C-126 67.34 -126 66.68 -126 66 C-125.34 66 -124.68 66 -124 66 C-124 65.01 -124 64.02 -124 63 C-123.34 63 -122.68 63 -122 63 C-122 62.34 -122 61.68 -122 61 C-121.01 61 -120.02 61 -119 61 C-119 60.01 -119 59.02 -119 58 C-118.34 58 -117.68 58 -117 58 C-117 57.34 -117 56.68 -117 56 C-116.01 56 -115.02 56 -114 56 C-114 55.01 -114 54.02 -114 53 C-113.34 53 -112.68 53 -112 53 C-112 52.34 -112 51.68 -112 51 C-111.01 51 -110.02 51 -109 51 C-109 50.01 -109 49.02 -109 48 C-108.34 48 -107.68 48 -107 48 C-107 47.34 -107 46.68 -107 46 C-106.01 46 -105.02 46 -104 46 C-104 45.34 -104 44.68 -104 44 C-102.68 44 -101.36 44 -100 44 C-100 43.01 -100 42.02 -100 41 C-99.01 41 -98.02 41 -97 41 C-97 40.34 -97 39.68 -97 39 C-96.34 39 -95.68 39 -95 39 C-94.67 38.01 -94.34 37.02 -94 36 C-92.68 36 -91.36 36 -90 36 C-90 35.34 -90 34.68 -90 34 C-89.01 34 -88.02 34 -87 34 C-87 33.01 -87 32.02 -87 31 C-85.68 31 -84.36 31 -83 31 C-83 30.34 -83 29.68 -83 29 C-82.01 29 -81.02 29 -80 29 C-80 28.34 -80 27.68 -80 27 C-78.35 27 -76.7 27 -75 27 C-75 26.01 -75 25.02 -75 24 C-73.35 24 -71.7 24 -70 24 C-70 23.34 -70 22.68 -70 22 C-68.68 22 -67.36 22 -66 22 C-65.505 20.515 -65.505 20.515 -65 19 C-63.68 19 -62.36 19 -61 19 C-61 18.34 -61 17.68 -61 17 C-59.35 17 -57.7 17 -56 17 C-55.505 15.515 -55.505 15.515 -55 14 C-52.69 14 -50.38 14 -48 14 C-48 13.34 -48 12.68 -48 12 C-46.35 12 -44.7 12 -43 12 C-43 11.34 -43 10.68 -43 10 C-39.535 9.505 -39.535 9.505 -36 9 C-36 8.34 -36 7.68 -36 7 C-32.7 7 -29.4 7 -26 7 C-26 6.34 -26 5.68 -26 5 C-23.03 5 -20.06 5 -17 5 C-16.67 4.01 -16.34 3.02 -16 2 C-10.72 2 -5.44 2 0 2 C0 1.34 0 0.68 0 0 Z M16 74 C16 74.66 16 75.32 16 76 C10.39 76 4.78 76 -1 76 C-1 76.99 -1 77.98 -1 79 C-4.3 79 -7.6 79 -11 79 C-11 79.66 -11 80.32 -11 81 C-13.31 81 -15.62 81 -18 81 C-18.33 81.66 -18.66 82.32 -19 83 C-22.58646443 84.74199701 -26.06693147 85.45119974 -30 86 C-30 86.66 -30 87.32 -30 88 C-31.65 88 -33.3 88 -35 88 C-35 88.99 -35 89.98 -35 91 C-35.99 91 -36.98 91 -38 91 C-38 91.66 -38 92.32 -38 93 C-39.65 93 -41.3 93 -43 93 C-43 93.99 -43 94.98 -43 96 C-44.32 96 -45.64 96 -47 96 C-47 96.66 -47 97.32 -47 98 C-47.99 98 -48.98 98 -50 98 C-50 98.99 -50 99.98 -50 101 C-50.66 101 -51.32 101 -52 101 C-52 101.66 -52 102.32 -52 103 C-53.65 103 -55.3 103 -57 103 C-57 103.99 -57 104.98 -57 106 C-57.99 106 -58.98 106 -60 106 C-60 106.66 -60 107.32 -60 108 C-60.66 108 -61.32 108 -62 108 C-62 108.66 -62 109.32 -62 110 C-62.99 110 -63.98 110 -65 110 C-65 110.99 -65 111.98 -65 113 C-65.66 113 -66.32 113 -67 113 C-67 113.66 -67 114.32 -67 115 C-67.66 115 -68.32 115 -69 115 C-69 115.99 -69 116.98 -69 118 C-69.99 118 -70.98 118 -72 118 C-72 119.32 -72 120.64 -72 122 C-72.66 122 -73.32 122 -74 122 C-74 122.99 -74 123.98 -74 125 C-74.99 125 -75.98 125 -77 125 C-77 125.66 -77 126.32 -77 127 C-77.66 127 -78.32 127 -79 127 C-79.33 128.65 -79.66 130.3 -80 132 C-80.66 132 -81.32 132 -82 132 C-82 132.99 -82 133.98 -82 135 C-82.66 135 -83.32 135 -84 135 C-84.99 137.97 -85.98 140.94 -87 144 C-87.66 144 -88.32 144 -89 144 C-89 144.99 -89 145.98 -89 147 C-89.66 147 -90.32 147 -91 147 C-91.12375 147.969375 -91.2475 148.93875 -91.375 149.9375 C-91.58125 150.948125 -91.7875 151.95875 -92 153 C-92.99 153.495 -92.99 153.495 -94 154 C-94 155.65 -94 157.3 -94 159 C-94.66 159 -95.32 159 -96 159 C-96 161.31 -96 163.62 -96 166 C-96.99 166 -97.98 166 -99 166 C-99 169.3 -99 172.6 -99 176 C-99.66 176 -100.32 176 -101 176 C-101 182.6 -101 189.2 -101 196 C-101.99 196 -102.98 196 -104 196 C-104 229.33 -104 262.66 -104 297 C-103.34 297 -102.68 297 -102 297 C-102 296.34 -102 295.68 -102 295 C-99.69 295 -97.38 295 -95 295 C-95 294.01 -95 293.02 -95 292 C-92.36 292 -89.72 292 -87 292 C-87 291.34 -87 290.68 -87 290 C-84.69 290 -82.38 290 -80 290 C-80 289.01 -80 288.02 -80 287 C-77.69 287 -75.38 287 -73 287 C-73 286.34 -73 285.68 -73 285 C-70.69 285 -68.38 285 -66 285 C-66 284.34 -66 283.68 -66 283 C-63.36 283 -60.72 283 -58 283 C-58 282.01 -58 281.02 -58 280 C-56.02 280 -54.04 280 -52 280 C-52 287.59 -52 295.18 -52 303 C-51.34 303 -50.68 303 -50 303 C-50 307.62 -50 312.24 -50 317 C-49.34 317 -48.68 317 -48 317 C-47.93941406 317.63808594 -47.87882812 318.27617187 -47.81640625 318.93359375 C-47.73261719 319.75988281 -47.64882812 320.58617187 -47.5625 321.4375 C-47.48128906 322.26121094 -47.40007812 323.08492187 -47.31640625 323.93359375 C-47.21069185 325.98662025 -47.21069185 325.98662025 -46 327 C-45.63239269 329.32817964 -45.29758419 331.6618385 -45 334 C-44.34 334 -43.68 334 -43 334 C-43 336.31 -43 338.62 -43 341 C-42.01 341 -41.02 341 -40 341 C-40 342.65 -40 344.3 -40 346 C-39.34 346 -38.68 346 -38 346 C-38 347.65 -38 349.3 -38 351 C-37.01 351 -36.02 351 -35 351 C-34.01 354.465 -34.01 354.465 -33 358 C-32.01 358 -31.02 358 -30 358 C-30 359.65 -30 361.3 -30 363 C-29.34 363 -28.68 363 -28 363 C-28 363.66 -28 364.32 -28 365 C-27.34 365 -26.68 365 -26 365 C-26 365.99 -26 366.98 -26 368 C-25.01 368 -24.02 368 -23 368 C-23 368.99 -23 369.98 -23 371 C-22.34 371 -21.68 371 -21 371 C-21 372.32 -21 373.64 -21 375 C-20.01 375 -19.02 375 -18 375 C-18 375.99 -18 376.98 -18 378 C-17.34 378 -16.68 378 -16 378 C-16 378.66 -16 379.32 -16 380 C-15.01 380 -14.02 380 -13 380 C-13 380.66 -13 381.32 -13 382 C-12.34 382 -11.68 382 -11 382 C-11 382.99 -11 383.98 -11 385 C-10.01 385 -9.02 385 -8 385 C-8 385.66 -8 386.32 -8 387 C-6.68 387.33 -5.36 387.66 -4 388 C-4 388.66 -4 389.32 -4 390 C-3.01 390 -2.02 390 -1 390 C-1 390.66 -1 391.32 -1 392 C-0.34 392 0.32 392 1 392 C1 392.99 1 393.98 1 395 C2.65 395 4.3 395 6 395 C6 395.66 6 396.32 6 397 C6.99 397 7.98 397 9 397 C9 397.99 9 398.98 9 400 C10.32 400 11.64 400 13 400 C13 400.66 13 401.32 13 402 C14.65 402 16.3 402 18 402 C18 402.66 18 403.32 18 404 C19.65 404.33 21.3 404.66 23 405 C23 405.66 23 406.32 23 407 C24.65 407 26.3 407 28 407 C28 407.66 28 408.32 28 409 C30.31 409 32.62 409 35 409 C35 409.99 35 410.98 35 412 C37.64 412 40.28 412 43 412 C43 412.66 43 413.32 43 414 C45.97 414 48.94 414 52 414 C52 414.99 52 415.98 52 417 C71.47 417 90.94 417 111 417 C111.33 416.34 111.66 415.68 112 415 C114.28515625 414.5859375 114.28515625 414.5859375 117.0625 414.375 C118.44115234 414.26285156 118.44115234 414.26285156 119.84765625 414.1484375 C120.55792969 414.09945313 121.26820313 414.05046875 122 414 C122 413.34 122 412.68 122 412 C124.64 412 127.28 412 130 412 C130 411.01 130 410.02 130 409 C132.31 409 134.62 409 137 409 C137 408.34 137 407.68 137 407 C138.65 407 140.3 407 142 407 C142 406.01 142 405.02 142 404 C143.65 404 145.3 404 147 404 C147 403.34 147 402.68 147 402 C148.32 402 149.64 402 151 402 C151 401.34 151 400.68 151 400 C152.65 400 154.3 400 156 400 C156 399.01 156 398.02 156 397 C156.99 397 157.98 397 159 397 C159 396.34 159 395.68 159 395 C160.65 395 162.3 395 164 395 C164 394.01 164 393.02 164 392 C164.66 392 165.32 392 166 392 C166 391.34 166 390.68 166 390 C166.99 390 167.98 390 169 390 C169 389.01 169 388.02 169 387 C169.66 387 170.32 387 171 387 C171 386.34 171 385.68 171 385 C171.99 385 172.98 385 174 385 C174 384.34 174 383.68 174 383 C175.32 382.67 176.64 382.34 178 382 C178 381.34 178 380.68 178 380 C178.99 380 179.98 380 181 380 C181 378.68 181 377.36 181 376 C181.66 376 182.32 376 183 376 C183 375.01 183 374.02 183 373 C183.99 373 184.98 373 186 373 C186 372.01 186 371.02 186 370 C186.66 370 187.32 370 188 370 C188 369.34 188 368.68 188 368 C188.66 368 189.32 368 190 368 C191.70790088 366.79252059 191.70790088 366.79252059 193 365 C193 363.68 193 362.36 193 361 C193.66 361 194.32 361 195 361 C195 360.01 195 359.02 195 358 C195.99 358 196.98 358 198 358 C198 356.35 198 354.7 198 353 C198.66 353 199.32 353 200 353 C200.12375 352.360625 200.2475 351.72125 200.375 351.0625 C200.684375 350.0415625 200.684375 350.0415625 201 349 C201.66 348.67 202.32 348.34 203 348 C203 346.68 203 345.36 203 344 C203.66 344 204.32 344 205 344 C205 342.35 205 340.7 205 339 C205.99 339 206.98 339 208 339 C208 336.69 208 334.38 208 332 C208.66 332 209.32 332 210 332 C210 329.36 210 326.72 210 324 C210.66 324 211.32 324 212 324 C212.33 320.7 212.66 317.4 213 314 C213.66 314 214.32 314 215 314 C215 307.07 215 300.14 215 293 C215.66 293 216.32 293 217 293 C217 259.34 217 225.68 217 191 C215.68 191 214.36 191 213 191 C213 191.66 213 192.32 213 193 C210.69 193 208.38 193 206 193 C206 193.99 206 194.98 206 196 C203.69 196 201.38 196 199 196 C199 196.66 199 197.32 199 198 C196.36 198 193.72 198 191 198 C191 198.99 191 199.98 191 201 C189.35 201 187.7 201 186 201 C186 201.66 186 202.32 186 203 C183.69 203 181.38 203 179 203 C179 203.66 179 204.32 179 205 C176.69 205 174.38 205 172 205 C172 205.99 172 206.98 172 208 C170.02 208 168.04 208 166 208 C166 202.06 166 196.12 166 190 C165.34 190 164.68 190 164 190 C164 185.38 164 180.76 164 176 C163.34 176 162.68 176 162 176 C161.67 172.7 161.34 169.4 161 166 C160.34 166 159.68 166 159 166 C159 163.69 159 161.38 159 159 C158.34 158.67 157.68 158.34 157 158 C156.375 154.9375 156.375 154.9375 156 152 C155.34 152 154.68 152 154 152 C154 150.35 154 148.7 154 147 C153.34 146.67 152.68 146.34 152 146 C151.375 143.9375 151.375 143.9375 151 142 C150.34 142 149.68 142 149 142 C149 140.35 149 138.7 149 137 C148.34 137 147.68 137 147 137 C147 136.34 147 135.68 147 135 C146.01 135 145.02 135 144 135 C144 133.35 144 131.7 144 130 C143.34 130 142.68 130 142 130 C142 129.01 142 128.02 142 127 C141.01 127 140.02 127 139 127 C138.34 124.69 137.68 122.38 137 120 C136.01 120 135.02 120 134 120 C134 119.34 134 118.68 134 118 C133.34 118 132.68 118 132 118 C132 117.01 132 116.02 132 115 C131.34 115 130.68 115 130 115 C130 114.34 130 113.68 130 113 C129.01 113 128.02 113 127 113 C127 112.01 127 111.02 127 110 C126.34 110 125.68 110 125 110 C125 109.34 125 108.68 125 108 C124.01 108 123.02 108 122 108 C122 107.34 122 106.68 122 106 C121.34 106 120.68 106 120 106 C120 105.01 120 104.02 120 103 C117.69 102.34 115.38 101.68 113 101 C113 100.01 113 99.02 113 98 C112.01 98 111.02 98 110 98 C110 97.34 110 96.68 110 96 C108.35 96 106.7 96 105 96 C105 95.01 105 94.02 105 93 C104.34 93 103.68 93 103 93 C103 92.34 103 91.68 103 91 C101.35 91 99.7 91 98 91 C98 90.01 98 89.02 98 88 C96.35 88 94.7 88 93 88 C93 87.34 93 86.68 93 86 C91.35 86 89.7 86 88 86 C88 85.34 88 84.68 88 84 C85.69 84 83.38 84 81 84 C81 83.01 81 82.02 81 81 C79.865625 80.855625 78.73125 80.71125 77.5625 80.5625 C74 80 74 80 73 79 C71.48071962 78.92820036 69.95832518 78.91607993 68.4375 78.9375 C67.61121094 78.94652344 66.78492188 78.95554687 65.93359375 78.96484375 C64.97646484 78.98224609 64.97646484 78.98224609 64 79 C64 78.01 64 77.02 64 76 C58.39 76 52.78 76 47 76 C47 75.34 47 74.68 47 74 C36.77 74 26.54 74 16 74 Z " fill="#273675" transform="translate(204,12)"/>
<path d="M0 0 C13.86 0 27.72 0 42 0 C42 0.66 42 1.32 42 2 C44.64 2.33 47.28 2.66 50 3 C50 3.66 50 4.32 50 5 C51.65 5 53.3 5 55 5 C55 5.66 55 6.32 55 7 C56.32 7 57.64 7 59 7 C59 7.99 59 8.98 59 10 C60.65 10 62.3 10 64 10 C64 10.66 64 11.32 64 12 C65.65 12.33 67.3 12.66 69 13 C69 13.66 69 14.32 69 15 C69.99 15 70.98 15 72 15 C72 15.66 72 16.32 72 17 C72.66 17 73.32 17 74 17 C74 17.99 74 18.98 74 20 C74.66 20 75.32 20 76 20 C76 20.66 76 21.32 76 22 C76.99 22 77.98 22 79 22 C79 22.66 79 23.32 79 24 C79.66 24 80.32 24 81 24 C81 24.99 81 25.98 81 27 C81.99 27 82.98 27 84 27 C84 28.65 84 30.3 84 32 C84.66 32 85.32 32 86 32 C86 32.66 86 33.32 86 34 C86.99 34 87.98 34 89 34 C89 35.65 89 37.3 89 39 C89.66 39 90.32 39 91 39 C91 40.65 91 42.3 91 44 C91.99 44 92.98 44 94 44 C94 46.31 94 48.62 94 51 C94.66 51 95.32 51 96 51 C96 54.3 96 57.6 96 61 C96.66 61 97.32 61 98 61 C98 61.66 98 62.32 98 63 C98.66 63 99.32 63 100 63 C100 62.34 100 61.68 100 61 C102.64 61 105.28 61 108 61 C108 60.34 108 59.68 108 59 C110.31 59 112.62 59 115 59 C115 58.34 115 57.68 115 57 C118.465 56.505 118.465 56.505 122 56 C122 55.34 122 54.68 122 54 C124.64 54 127.28 54 130 54 C130 73.47 130 92.94 130 113 C129.34 113 128.68 113 128 113 C128.01160156 113.84304688 128.02320313 114.68609375 128.03515625 115.5546875 C128.04417969 116.65039062 128.05320312 117.74609375 128.0625 118.875 C128.07410156 119.96554687 128.08570313 121.05609375 128.09765625 122.1796875 C128 125 128 125 127 127 C126.34 127 125.68 127 125 127 C125 128.98 125 130.96 125 133 C124.34 133 123.68 133 123 133 C123 135.31 123 137.62 123 140 C122.01 140 121.02 140 120 140 C120 140.66 120 141.32 120 142 C119.34 142 118.68 142 118 142 C118 143.65 118 145.3 118 147 C117.34 147 116.68 147 116 147 C115.67 147.99 115.34 148.98 115 150 C114.34 150 113.68 150 113 150 C112.855625 150.78375 112.71125 151.5675 112.5625 152.375 C112 155 112 155 111 157 C110.01 157 109.02 157 108 157 C108 157.66 108 158.32 108 159 C107.34 159 106.68 159 106 159 C106 159.99 106 160.98 106 162 C105.01 162 104.02 162 103 162 C103 162.66 103 163.32 103 164 C101.35 164 99.7 164 98 164 C98 164.99 98 165.98 98 167 C97.34 167 96.68 167 96 167 C96 167.66 96 168.32 96 169 C94.35 169 92.7 169 91 169 C91 169.99 91 170.98 91 172 C89.35 172 87.7 172 86 172 C86 172.66 86 173.32 86 174 C84.35 174 82.7 174 81 174 C81 174.66 81 175.32 81 176 C78.04335481 177.4783226 75.25770263 177.06032783 72 177 C72 177.66 72 178.32 72 179 C58.8 179 45.6 179 32 179 C32 178.34 32 177.68 32 177 C30.081875 177.0309375 30.081875 177.0309375 28.125 177.0625 C24.25 177.125 24.25 177.125 22 176 C22 175.34 22 174.68 22 174 C20.35 174 18.7 174 17 174 C17 173.34 17 172.68 17 172 C15.35 172 13.7 172 12 172 C12 171.01 12 170.02 12 169 C10.35 169 8.7 169 7 169 C7 168.34 7 167.68 7 167 C6.34 167 5.68 167 5 167 C5 166.01 5 165.02 5 164 C4.01 164 3.02 164 2 164 C2 163.34 2 162.68 2 162 C0.68 162 -0.64 162 -2 162 C-2 161.01 -2 160.02 -2 159 C-2.99 159 -3.98 159 -5 159 C-5 158.34 -5 157.68 -5 157 C-5.66 157 -6.32 157 -7 157 C-7 155.35 -7 153.7 -7 152 C-7.99 152 -8.98 152 -10 152 C-10 151.34 -10 150.68 -10 150 C-10.66 150 -11.32 150 -12 150 C-12 149.01 -12 148.02 -12 147 C-12.99 147 -13.98 147 -15 147 C-15 145.35 -15 143.7 -15 142 C-15.66 142 -16.32 142 -17 142 C-17 140.68 -17 139.36 -17 138 C-17.99 137.67 -18.98 137.34 -20 137 C-20 135.68 -20 134.36 -20 133 C-20.66 133 -21.32 133 -22 133 C-22 130.36 -22 127.72 -22 125 C-22.66 125 -23.32 125 -24 125 C-24 119.39 -24 113.78 -24 108 C-26.31 108 -28.62 108 -31 108 C-31 108.99 -31 109.98 -31 111 C-33.31 111 -35.62 111 -38 111 C-38 111.66 -38 112.32 -38 113 C-40.31 113 -42.62 113 -45 113 C-45.33 113.99 -45.66 114.98 -46 116 C-48.31 116 -50.62 116 -53 116 C-53 116.66 -53 117.32 -53 118 C-53.99 118 -54.98 118 -56 118 C-56 97.54 -56 77.08 -56 56 C-55.34 56 -54.68 56 -54 56 C-54 53.69 -54 51.38 -54 49 C-53.01 49 -52.02 49 -51 49 C-51 46.69 -51 44.38 -51 42 C-50.34 42 -49.68 42 -49 42 C-49 40.35 -49 38.7 -49 37 C-48.01 37 -47.02 37 -46 37 C-46 36.01 -46 35.02 -46 34 C-45.34 34 -44.68 34 -44 34 C-44 32.35 -44 30.7 -44 29 C-42.35 28.34 -40.7 27.68 -39 27 C-39 26.01 -39 25.02 -39 24 C-38.34 24 -37.68 24 -37 24 C-37 23.34 -37 22.68 -37 22 C-36.01 22 -35.02 22 -34 22 C-34 21.34 -34 20.68 -34 20 C-33.34 20 -32.68 20 -32 20 C-32 19.01 -32 18.02 -32 17 C-31.01 17 -30.02 17 -29 17 C-29 16.34 -29 15.68 -29 15 C-28.34 15 -27.68 15 -27 15 C-27 14.01 -27 13.02 -27 12 C-25.35 12 -23.7 12 -22 12 C-22 11.34 -22 10.68 -22 10 C-21.34 10 -20.68 10 -20 10 C-19.67 9.01 -19.34 8.02 -19 7 C-17.68 7 -16.36 7 -15 7 C-15 6.34 -15 5.68 -15 5 C-12.36 5 -9.72 5 -7 5 C-6.67 4.01 -6.34 3.02 -6 2 C-4.02 2 -2.04 2 0 2 C0 1.34 0 0.68 0 0 Z " fill="#273675" transform="translate(219,175)"/>
</svg>
