<?xml version="1.0" encoding="UTF-8"?>
<svg version="1.1" xmlns="http://www.w3.org/2000/svg" width="250" height="232">
<path d="M0 0 C1.77178425 2.65767637 2.64746624 4.66019788 3.6875 7.625 C7.64254941 17.61440789 15.01766033 25.96940666 24.9609375 30.28515625 C33.36508605 33.23825127 41.50408013 34.13549923 50.34375 34.20532227 C51.13495743 34.21522186 51.92616486 34.22512146 52.74134827 34.23532104 C55.32753624 34.26662703 57.91374251 34.29156971 60.5 34.31640625 C62.30461067 34.33700255 64.1092168 34.35799968 65.91381836 34.37937927 C70.64178779 34.43432378 75.36979874 34.48385377 80.09783936 34.53222656 C84.93114883 34.58264448 89.7643987 34.63822417 94.59765625 34.69335938 C104.06505314 34.80060261 113.53250199 34.90212137 123 35 C118.03461536 41.0253131 112.59857395 46.43555679 107.0078125 51.87890625 C105.06561491 53.78628589 103.12686254 55.69716022 101.1875 57.60742188 C98.14696833 60.59998068 95.10200219 63.58765235 92.04199219 66.56030273 C89.55167994 68.98033867 87.07630223 71.41479235 84.61019516 73.8594799 C83.217959 75.23158717 81.81014123 76.58782617 80.40213013 77.94374084 C79.56060394 78.78158615 78.71907776 79.61943146 77.85205078 80.48266602 C77.10625763 81.21211929 76.36046448 81.94157257 75.59207153 82.69313049 C73.55210192 85.64899246 73.6222538 87.47932952 74 91 C75.43007526 93.55588656 77.52524043 95.409718 79.625 97.4375 C80.14707031 97.99115234 80.66914062 98.54480469 81.20703125 99.11523438 C83.78080342 101.66676407 85.42975829 102.94644938 89.078125 103.2890625 C92.47178456 101.79185975 93.63394476 99.94184988 95.67919922 96.93212891 C98.9221091 92.45820561 102.3362471 88.73766609 107.97436523 87.60247803 C119.201024 86.26702621 130.75940434 87.18985094 142 88 C138.12800903 92.64776192 134.09662391 97.01372406 129.76171875 101.23046875 C128.6006316 102.37406489 127.4398324 103.51795345 126.27929688 104.66210938 C124.47413081 106.43617317 122.66671492 108.20775915 120.85424805 109.97436523 C119.08750189 111.6988595 117.33027881 113.43260324 115.57421875 115.16796875 C115.0294841 115.69408249 114.48474945 116.22019623 113.92350769 116.76225281 C110.2665878 120.27993989 110.2665878 120.27993989 109 125 C110.16231916 127.03079834 110.16231916 127.03079834 112 128.875 C112.64066406 129.56335938 113.28132813 130.25171875 113.94140625 130.9609375 C116.83126015 133.82337343 119.8491116 136.4278462 123 139 C128.14994081 137.511038 131.06632986 134.33897101 134.71801758 130.62255859 C135.37223694 129.96877731 136.0264563 129.31499603 136.70050049 128.6414032 C138.85570025 126.48411765 141.00008608 124.31640953 143.14453125 122.1484375 C144.63888607 120.64848601 146.13390572 119.1491966 147.62956238 117.65054321 C151.56036995 113.7082926 155.48208426 109.7571153 159.40197754 105.80401611 C163.40511377 101.77016761 167.4167778 97.74481995 171.42773438 93.71875 C179.29352954 85.82080019 187.14974518 77.91339437 195 70 C200.70818936 75.56185496 203.01250271 80.43338429 203.4375 88.4375 C202.6262575 101.20988673 194.417509 108.47204025 185.8359375 116.9609375 C184.51951973 118.28140451 183.20399311 119.60276046 181.88931274 120.92495728 C179.14010933 123.68297101 176.38044027 126.42993235 173.61279297 129.16943359 C170.08201087 132.66603305 166.57885875 136.18888717 163.08315086 139.72051048 C160.37437664 142.45105912 157.65135769 145.16704178 154.92393875 147.87895584 C153.62708865 149.17182912 152.33460942 150.46910328 151.04679489 151.77097702 C142.98773071 159.89865195 136.03685709 166.81995894 124 167.5 C111.00661015 166.76591813 103.66640379 158.55746445 95.0390625 149.8359375 C93.71859549 148.51951973 92.39723954 147.20399311 91.07504272 145.88931274 C88.31702899 143.14010933 85.57006765 140.38044027 82.83056641 137.61279297 C79.33396695 134.08201087 75.81111283 130.57885875 72.27948952 127.08315086 C69.54894088 124.37437664 66.83295822 121.65135769 64.12104416 118.92393875 C62.82817088 117.62708865 61.53089672 116.33460942 60.22902298 115.04679489 C45.30396837 100.24773193 45.30396837 100.24773193 44.5625 88.4375 C45.28293508 76.99058712 51.16389837 70.82279755 59 63 C59.78342773 62.21496094 60.56685547 61.42992187 61.37402344 60.62109375 C63.58057977 58.41194452 65.78939272 56.20509454 68 54 C66.80624756 53.970271 66.80624756 53.970271 65.58837891 53.93994141 C61.93362362 53.84386142 58.2793762 53.73452176 54.625 53.625 C52.74748047 53.57859375 52.74748047 53.57859375 50.83203125 53.53125 C34.83679446 53.02878183 22.08163826 49.8744792 10.19140625 38.48046875 C1.63757064 28.79831971 -1.4007867 17.10041419 -1.203125 4.43359375 C-1 2 -1 2 0 0 Z " fill="#14599D" transform="translate(1,1)"/>
<path d="M0 0 C2.61350442 2.61350442 2.29829926 3.79737573 2.3125 7.4375 C2.06926337 19.42763517 -1.97751201 30.93518388 -10.25 39.8125 C-19.04125185 47.90510932 -30.3264254 53.16585714 -42.37060547 52.93554688 C-43.52447754 52.86400391 -44.67834961 52.79246094 -45.8671875 52.71875 C-59.76650907 51.62135587 -59.76650907 51.62135587 -72.52587891 55.71142578 C-74.59768371 57.89713738 -76.40716177 60.13418458 -78.1875 62.5625 C-81.13414543 66.55859111 -83.94518209 70.25395751 -88.97937012 71.48339844 C-100.16083113 73.0799605 -111.80044937 71.99553563 -123 71 C-122.62810043 70.5758078 -122.25620087 70.1516156 -121.87303162 69.71456909 C-119.28233953 66.73043814 -116.75722376 63.73397079 -114.40258789 60.55908203 C-96.30995239 36.30619275 -96.30995239 36.30619275 -82.23339844 33.59130859 C-71.07171638 32.15019258 -59.80264888 32.79322057 -48.61244202 33.597229 C-35.61841876 34.49869785 -24.20518405 31.97002284 -13.91015625 23.7421875 C-6.53940754 17.01958234 -3.13811456 9.35649825 0 0 Z " fill="#00A758" transform="translate(248,1)"/>
<path d="M0 0 C0.89589844 0.00322266 1.79179687 0.00644531 2.71484375 0.00976562 C4.12056641 0.02233398 4.12056641 0.02233398 5.5546875 0.03515625 C6.49957031 0.03966797 7.44445312 0.04417969 8.41796875 0.04882812 C10.75527137 0.06063268 13.09244811 0.07709866 15.4296875 0.09765625 C14.4296875 2.55859375 14.4296875 2.55859375 12.4296875 5.09765625 C9.5924147 5.56051643 7.26242618 5.75289901 4.4296875 5.72265625 C1.71416499 5.72265625 -0.85417733 5.85021173 -3.5703125 6.09765625 C-4.5603125 7.08765625 -5.5503125 8.07765625 -6.5703125 9.09765625 C2.9996875 9.42765625 12.5696875 9.75765625 22.4296875 10.09765625 C21.4296875 19.09765625 21.4296875 19.09765625 19.34887695 22.1159668 C15.76184651 24.55101958 12.92251044 24.82841721 8.72265625 24.8046875 C7.63456413 24.82736946 7.63456413 24.82736946 6.52449036 24.85050964 C4.22173737 24.89328452 1.92029766 24.90221366 -0.3828125 24.91015625 C-1.94990446 24.93330886 -3.51696536 24.95867581 -5.08398438 24.98632812 C-8.91287595 25.04907819 -12.74095234 25.08149326 -16.5703125 25.09765625 C-16.9003125 26.74765625 -17.2303125 28.39765625 -17.5703125 30.09765625 C-18.8903125 30.42765625 -20.2103125 30.75765625 -21.5703125 31.09765625 C-21.62816897 27.1393839 -21.66385967 23.18121955 -21.6953125 19.22265625 C-21.71207031 18.09472656 -21.72882813 16.96679688 -21.74609375 15.8046875 C-21.75253906 14.72832031 -21.75898438 13.65195313 -21.765625 12.54296875 C-21.77609863 11.54797363 -21.78657227 10.55297852 -21.79736328 9.52783203 C-21.5703125 7.09765625 -21.5703125 7.09765625 -19.5703125 5.09765625 C-18.5803125 5.09765625 -17.5903125 5.09765625 -16.5703125 5.09765625 C-16.5703125 10.04765625 -16.5703125 14.99765625 -16.5703125 20.09765625 C-12.20877971 20.04661432 -7.85082656 19.98372091 -3.49047852 19.89013672 C-2.00752308 19.86192084 -0.52441707 19.84070923 0.95874023 19.82666016 C3.09176747 19.80523705 5.22298356 19.75859843 7.35546875 19.70703125 C8.63848877 19.68608398 9.92150879 19.66513672 11.2434082 19.64355469 C14.52047321 19.4084704 14.52047321 19.4084704 16.37182617 17.05957031 C16.72092041 16.41213867 17.07001465 15.76470703 17.4296875 15.09765625 C16.43171143 15.12122192 16.43171143 15.12122192 15.41357422 15.14526367 C12.3773663 15.20791222 9.34129478 15.24674134 6.3046875 15.28515625 C4.73460937 15.32286133 4.73460937 15.32286133 3.1328125 15.36132812 C-2.62502714 15.41599116 -6.70545882 15.30441966 -11.5703125 12.09765625 C-11.07990154 5.72231378 -11.07990154 5.72231378 -8.6328125 2.72265625 C-5.54514196 0.28994613 -3.86536211 -0.02446432 0 0 Z " fill="#363334" transform="translate(169.5703125,200.90234375)"/>
<path d="M0 0 C4 2 4 2 5 4 C5.08308638 5.37548156 5.10736016 6.75485796 5.09765625 8.1328125 C5.09282227 9.34130859 5.09282227 9.34130859 5.08789062 10.57421875 C5.07951172 11.41597656 5.07113281 12.25773438 5.0625 13.125 C5.05798828 13.97449219 5.05347656 14.82398438 5.04882812 15.69921875 C5.03702874 17.79950909 5.01909306 19.8997633 5 22 C9.52085371 21.88186981 14.04148214 21.75763024 18.56201172 21.62768555 C20.10037653 21.58433074 21.63878963 21.54265605 23.17724609 21.50268555 C25.3865414 21.44499602 27.59559348 21.38129821 29.8046875 21.31640625 C30.49432587 21.29969376 31.18396423 21.28298126 31.89450073 21.26576233 C35.57114264 21.19193005 35.57114264 21.19193005 39 20 C39.495 18.515 39.495 18.515 40 17 C39.33468262 17.02094727 38.66936523 17.04189453 37.98388672 17.06347656 C34.94774698 17.14700609 31.91184957 17.19877603 28.875 17.25 C27.82828125 17.28351563 26.7815625 17.31703125 25.703125 17.3515625 C19.46335584 17.43054692 15.75767259 17.18148387 11 13 C11.31968533 9.48346139 11.62242136 7.46568032 13.875 4.6875 C17.02545072 2.18567148 19.55809924 1.87622885 23.44921875 1.90234375 C24.29677734 1.90556641 25.14433594 1.90878906 26.01757812 1.91210938 C26.89865234 1.92048828 27.77972656 1.92886719 28.6875 1.9375 C30.02651367 1.94426758 30.02651367 1.94426758 31.39257812 1.95117188 C33.59511987 1.96295017 35.79752599 1.97939836 38 2 C37.625 3.9375 37.625 3.9375 37 6 C33.39757386 7.80121307 28.85425144 7.28873672 24.85351562 7.34179688 C22.44662759 7.39632251 22.44662759 7.39632251 19 8 C18.01 9.32 17.02 10.64 16 12 C25.57 12 35.14 12 45 12 C45 21.26315789 45 21.26315789 43 24 C39.955498 26.029668 39.39723672 26.24856301 35.98754883 26.22705078 C35.18694534 26.22689972 34.38634186 26.22674866 33.56147766 26.22659302 C32.70201035 26.21627045 31.84254303 26.20594788 30.95703125 26.1953125 C30.0734343 26.1924826 29.18983734 26.18965271 28.27946472 26.18673706 C25.45700546 26.17554097 22.63486338 26.15043751 19.8125 26.125 C17.89909312 26.11496946 15.98568127 26.10584374 14.07226562 26.09765625 C9.38128987 26.07730495 4.69100003 26.03815545 0 26 C0 17.42 0 8.84 0 0 Z " fill="#363334" transform="translate(205,199)"/>
<path d="M0 0 C1.98 0.99 1.98 0.99 4 2 C4 8.6 4 15.2 4 22 C7.3 21.67 10.6 21.34 14 21 C13.814375 20.0925 13.62875 19.185 13.4375 18.25 C13.04265379 15.31685676 13.05308428 13.7355343 14 11 C13.34 11 12.68 11 12 11 C11.67 9.68 11.34 8.36 11 7 C14.72901814 6.91263264 18.45777165 6.85948518 22.1875 6.8125 C23.24259766 6.78736328 24.29769531 6.76222656 25.38476562 6.73632812 C26.91713867 6.72182617 26.91713867 6.72182617 28.48046875 6.70703125 C29.41785889 6.6913208 30.35524902 6.67561035 31.32104492 6.65942383 C34.52889125 7.06723807 36.38378203 8.13469912 39 10 C41.32826375 13.21522137 41.39711181 16.10830425 41 20 C38.73529412 24.63235294 38.73529412 24.63235294 36 26 C33.30106819 26.08675538 30.62830769 26.11557897 27.9296875 26.09765625 C26.73534592 26.09553383 26.73534592 26.09553383 25.51687622 26.09336853 C22.9695462 26.08776345 20.42230353 26.07521014 17.875 26.0625 C16.14974085 26.05748565 14.42448033 26.05292263 12.69921875 26.04882812 C8.46608496 26.03864253 4.23314046 26.0190682 0 26 C0 17.42 0 8.84 0 0 Z M20 12 C17.77033253 13.82203581 17.77033253 13.82203581 17.6875 16.4375 C17.80793124 18.99860335 17.80793124 18.99860335 19.1875 20.8125 C21.55982525 22.36678206 23.22041345 22.22537188 26 22 C26.42641875 17.27675086 26.42641875 17.27675086 24.6875 13.0625 C22.90923892 11.73359337 22.90923892 11.73359337 20 12 Z M29 12 C29.33 15.3 29.66 18.6 30 22 C32.45224694 21.89386164 32.45224694 21.89386164 35 21 C36.66390749 18.75691443 36.66390749 18.75691443 37 16 C36.0785608 13.57695632 36.0785608 13.57695632 34 12 C32.35 12 30.7 12 29 12 Z " fill="#363334" transform="translate(45,199)"/>
<path d="M0 0 C0.89589844 0.00322266 1.79179688 0.00644531 2.71484375 0.00976562 C4.12056641 0.02233398 4.12056641 0.02233398 5.5546875 0.03515625 C6.49957031 0.03966797 7.44445312 0.04417969 8.41796875 0.04882812 C10.75527137 0.06063268 13.09244811 0.07709866 15.4296875 0.09765625 C13.6796875 3.97265625 13.6796875 3.97265625 11.4296875 5.09765625 C8.0171994 5.2631325 4.61143216 5.39466135 1.1953125 5.43945312 C-1.20389353 5.49155689 -1.20389353 5.49155689 -4.5703125 6.09765625 C-5.2303125 7.41765625 -5.8903125 8.73765625 -6.5703125 10.09765625 C2.9996875 10.09765625 12.5696875 10.09765625 22.4296875 10.09765625 C22.4296875 19.31987847 22.4296875 19.31987847 19.4296875 23.09765625 C15.84300437 25.48877834 14.26572181 25.33146652 10.01171875 25.29296875 C8.75810547 25.28652344 7.50449219 25.28007812 6.21289062 25.2734375 C4.24739258 25.24830078 4.24739258 25.24830078 2.2421875 25.22265625 C0.90690763 25.21262264 -0.42837939 25.20349745 -1.76367188 25.1953125 C-5.03273265 25.17170917 -8.30143278 25.13878219 -11.5703125 25.09765625 C-11.5703125 23.77765625 -11.5703125 22.45765625 -11.5703125 21.09765625 C-10.45789185 21.06792725 -10.45789185 21.06792725 -9.32299805 21.03759766 C-5.96757416 20.94242697 -2.61277964 20.83271531 0.7421875 20.72265625 C1.90943359 20.69171875 3.07667969 20.66078125 4.27929688 20.62890625 C5.95668945 20.57089844 5.95668945 20.57089844 7.66796875 20.51171875 C9.215448 20.4645874 9.215448 20.4645874 10.79418945 20.41650391 C13.65811986 20.27090996 13.65811986 20.27090996 16.4296875 18.09765625 C16.7596875 17.10765625 17.0896875 16.11765625 17.4296875 15.09765625 C16.37841675 15.07578247 16.37841675 15.07578247 15.3059082 15.0534668 C12.11745741 14.97880138 8.93003237 14.8822015 5.7421875 14.78515625 C4.08799805 14.75131836 4.08799805 14.75131836 2.40039062 14.71679688 C1.33369141 14.68134766 0.26699219 14.64589844 -0.83203125 14.609375 C-1.81131592 14.58319092 -2.79060059 14.55700684 -3.79956055 14.5300293 C-6.97640617 14.03428574 -8.93778001 12.90240119 -11.5703125 11.09765625 C-11.24672323 7.53817424 -10.9602131 5.56302149 -8.6328125 2.78515625 C-5.56165708 0.27239272 -3.89418158 -0.02464672 0 0 Z " fill="#363334" transform="translate(106.5703125,206.90234375)"/>
<path d="M0 0 C0 4.95 0 9.9 0 15 C1.98 15 3.96 15 6 15 C5.938125 13.783125 5.87625 12.56625 5.8125 11.3125 C5.81942219 7.4014614 6.45259982 5.09327165 9 2 C11.61191533 -0.12822731 13.7576561 -0.11561921 17 0.125 C19.77307382 0.57943295 21.04255814 1.02837209 23.4375 2.625 C25.54867565 5.83398698 25.93282489 8.17101888 26 12 C24.41161066 15.57387602 23.28365642 16.81089572 20 19 C17.82348633 19.22705078 17.82348633 19.22705078 15.33203125 19.1953125 C14.43935547 19.18886719 13.54667969 19.18242187 12.62695312 19.17578125 C11.23379883 19.15064453 11.23379883 19.15064453 9.8125 19.125 C8.87212891 19.11597656 7.93175781 19.10695312 6.96289062 19.09765625 C4.64167032 19.07409056 2.32096356 19.04119116 0 19 C0 20.65 0 22.3 0 24 C-1.98 24.99 -1.98 24.99 -4 26 C-4 17.75 -4 9.5 -4 1 C-2 0 -2 0 0 0 Z M11 7 C10.75787127 8.98128508 10.75787127 8.98128508 10.875 11.125 C10.91625 12.40375 10.9575 13.6825 11 15 C15.68367664 15.37127346 15.68367664 15.37127346 20 13.875 C21.51087147 11.042116 20.78779328 9.01987426 20 6 C18.88833136 4.66812207 18.88833136 4.66812207 16.0625 4.8125 C12.89107141 4.66721267 12.89107141 4.66721267 11 7 Z " fill="#363334" transform="translate(14,206)"/>
<path d="M0 0 C2.475 0.99 2.475 0.99 5 2 C5 9.92 5 17.84 5 26 C1 25 1 25 0 24 C-0.08726223 22.21928754 -0.10699041 20.4351686 -0.09765625 18.65234375 C-0.09443359 17.57275391 -0.09121094 16.49316406 -0.08789062 15.38085938 C-0.07951172 14.24455078 -0.07113281 13.10824219 -0.0625 11.9375 C-0.05798828 10.79732422 -0.05347656 9.65714844 -0.04882812 8.48242188 C-0.03699747 5.65489649 -0.0205141 2.8274736 0 0 Z " fill="#363334" transform="translate(140,199)"/>
<path d="M0 0 C0.086985 3.77068832 0.14038579 7.54111932 0.1875 11.3125 C0.21263672 12.38435547 0.23777344 13.45621094 0.26367188 14.56054688 C0.27333984 15.58857422 0.28300781 16.61660156 0.29296875 17.67578125 C0.3086792 18.62364502 0.32438965 19.57150879 0.34057617 20.5480957 C0 23 0 23 -1.39331055 24.83276367 C-3 26 -3 26 -5 26 C-5.08678303 22.04180389 -5.14031733 18.08385066 -5.1875 14.125 C-5.21263672 12.99707031 -5.23777344 11.86914062 -5.26367188 10.70703125 C-5.27333984 9.63066406 -5.28300781 8.55429688 -5.29296875 7.4453125 C-5.3086792 6.45031738 -5.32438965 5.45532227 -5.34057617 4.43017578 C-5.22818604 3.62821777 -5.1157959 2.82625977 -5 2 C-2 0 -2 0 0 0 Z " fill="#363334" transform="translate(201,206)"/>
<path d="M0 0 C0.05785647 3.95827235 0.09354717 7.9164367 0.125 11.875 C0.14175781 13.00292969 0.15851563 14.13085938 0.17578125 15.29296875 C0.18222656 16.36933594 0.18867188 17.44570312 0.1953125 18.5546875 C0.20578613 19.54968262 0.21625977 20.54467773 0.22705078 21.56982422 C0 24 0 24 -2 26 C-2.99 26 -3.98 26 -5 26 C-5.086985 22.22931168 -5.14038579 18.45888068 -5.1875 14.6875 C-5.21263672 13.61564453 -5.23777344 12.54378906 -5.26367188 11.43945312 C-5.27333984 10.41142578 -5.28300781 9.38339844 -5.29296875 8.32421875 C-5.3086792 7.37635498 -5.32438965 6.42849121 -5.34057617 5.4519043 C-5 3 -5 3 -3.60668945 1.16723633 C-2 0 -2 0 0 0 Z " fill="#363334" transform="translate(137,206)"/>
<path d="M0 0 C0.08720919 3.58317958 0.14046112 7.16608567 0.1875 10.75 C0.21263672 11.76578125 0.23777344 12.7815625 0.26367188 13.828125 C0.27333984 14.8078125 0.28300781 15.7875 0.29296875 16.796875 C0.31653442 18.14797363 0.31653442 18.14797363 0.34057617 19.52636719 C-0.06694364 22.48621721 -0.94620467 23.85913449 -3 26 C-3.66 26 -4.32 26 -5 26 C-5.08678303 22.04180389 -5.14031733 18.08385066 -5.1875 14.125 C-5.21263672 12.99707031 -5.23777344 11.86914062 -5.26367188 10.70703125 C-5.27333984 9.63066406 -5.28300781 8.55429688 -5.29296875 7.4453125 C-5.3086792 6.45031738 -5.32438965 5.45532227 -5.34057617 4.43017578 C-5.22818604 3.62821777 -5.1157959 2.82625977 -5 2 C-2 0 -2 0 0 0 Z " fill="#363334" transform="translate(5,206)"/>
<path d="M0 0 C1.26328125 0.03609375 2.5265625 0.0721875 3.828125 0.109375 C5.27445313 0.17898437 5.27445313 0.17898437 6.75 0.25 C5.75 3.25 5.75 3.25 3.75 4.25 C1.19842345 4.3216735 -1.32472971 4.34308442 -3.875 4.3125 C-4.58140625 4.30798828 -5.2878125 4.30347656 -6.015625 4.29882812 C-7.76045275 4.28703875 -9.505237 4.26910324 -11.25 4.25 C-7.85110743 -0.11019552 -5.38491164 -0.19944117 0 0 Z " fill="#363334" transform="translate(178.25,195.75)"/>
<path d="M0 0 C2.0625 0.4375 2.0625 0.4375 4 1 C4 2.32 4 3.64 4 5 C2.68 5.33 1.36 5.66 0 6 C-0.38218767 4.34385343 -0.71395102 2.67542976 -1 1 C-0.67 0.67 -0.34 0.34 0 0 Z " fill="#343333" transform="translate(1,199)"/>
<path d="M0 0 C1.98 0.495 1.98 0.495 4 1 C3.67 2.65 3.34 4.3 3 6 C1.68 5.67 0.36 5.34 -1 5 C-0.67 3.35 -0.34 1.7 0 0 Z " fill="#363334" transform="translate(149,199)"/>
</svg>