<?xml version="1.0" encoding="UTF-8"?>
<svg version="1.1" xmlns="http://www.w3.org/2000/svg" width="256" height="255">
<path d="M0 0 C0 19.14 0 38.28 0 58 C-7.425 60.475 -7.425 60.475 -15 63 C-23.4940353 67.37316669 -30.24217329 72.27755459 -37 79 C-37.62519531 79.59039062 -38.25039062 80.18078125 -38.89453125 80.7890625 C-51.46437578 93.67102507 -56.15918559 112.51890884 -56 130 C-55.08983566 149.41024379 -46.88071747 166.09002229 -32.88671875 179.4921875 C-17.76507963 192.6289836 0.91526671 197.92796538 20.65625 196.7890625 C38.38733494 194.67251407 52.37976263 187.3639889 65 175 C65.62777344 174.40832031 66.25554687 173.81664062 66.90234375 173.20703125 C82.13942166 157.55533898 84.03202167 135.88293294 84.31640625 115.23828125 C84.34438293 113.5446344 84.34438293 113.5446344 84.3729248 111.81677246 C84.44058702 107.64875181 84.50113836 103.48061816 84.5625 99.3125 C84.706875 89.969375 84.85125 80.62625 85 71 C103.81 71 122.62 71 142 71 C142.12032643 88.82613748 142.12032643 88.82613748 142.14648438 96.5234375 C142.16430153 101.741306 142.18519779 106.9590141 142.22631836 112.17675781 C142.25931897 116.39135475 142.27693711 120.60577927 142.28463173 124.82049561 C142.29010327 126.41496488 142.30078344 128.00942655 142.31719017 129.6038208 C142.45604224 143.67883079 141.01971896 157.19094475 135.875 170.4375 C135.5756958 171.22334473 135.2763916 172.00918945 134.96801758 172.81884766 C129.56760793 186.57010775 122.54348505 198.73839888 113 210 C112.15824219 211.00546875 111.31648437 212.0109375 110.44921875 213.046875 C93.00452218 233.29069251 68.91547325 246.88917029 43 253 C42.25693604 253.17877686 41.51387207 253.35755371 40.74829102 253.54174805 C32.73350444 255.25196531 24.82554537 255.33856149 16.66821289 255.31567383 C14.33366478 255.31252852 12.00040679 255.33599975 9.66601562 255.36132812 C-3.8257009 255.41972958 -16.77586644 253.79254611 -29.4375 248.875 C-30.22334473 248.5756958 -31.00918945 248.2763916 -31.81884766 247.96801758 C-45.57010775 242.56760793 -57.73839888 235.54348505 -69 226 C-70.00546875 225.15824219 -71.0109375 224.31648437 -72.046875 223.44921875 C-92.29069251 206.00452218 -105.88917029 181.91547325 -112 156 C-112.26707764 154.89192993 -112.26707764 154.89192993 -112.53955078 153.76147461 C-114.27239254 145.64777989 -114.37227973 137.61080471 -114.37060547 129.35083008 C-114.3749489 126.96556496 -114.41129617 124.58220175 -114.44921875 122.19726562 C-114.69013422 89.29300526 -99.86218138 58.51098534 -77.19921875 35.1015625 C-59.92946249 17.95481782 -38.36881085 7.00345247 -15 1 C-14.21882813 0.79117187 -13.43765625 0.58234375 -12.6328125 0.3671875 C-8.46047864 -0.21471069 -4.21271591 0 0 0 Z " fill="#212850" transform="translate(114,0)"/>
<path d="M0 0 C19.14 0 38.28 0 58 0 C58 18.81 58 37.62 58 57 C38.86 57 19.72 57 0 57 C0 38.19 0 19.38 0 0 Z " fill="#45D4DB" transform="translate(127,0)"/>
<path d="M0 0 C18.81 0 37.62 0 57 0 C57 18.81 57 37.62 57 57 C38.19 57 19.38 57 0 57 C0 38.19 0 19.38 0 0 Z " fill="#45D4DB" transform="translate(199,0)"/>
</svg>