<svg xmlns:dc="http://purl.org/dc/elements/1.1/" xmlns:cc="http://creativecommons.org/ns#" xmlns:rdf="http://www.w3.org/1999/02/22-rdf-syntax-ns#" xmlns:svg="http://www.w3.org/2000/svg" xmlns="http://www.w3.org/2000/svg" xmlns:sodipodi="http://sodipodi.sourceforge.net/DTD/sodipodi-0.dtd" xmlns:inkscape="http://www.inkscape.org/namespaces/inkscape" version="1.1" id="svg2" xml:space="preserve" width="294.66666" height="241.33333" viewBox="0 0 294.66666 241.33333" sodipodi:docname="logo.eps"><metadata id="metadata8"><rdf:RDF><cc:Work rdf:about=""><dc:format>image/svg+xml</dc:format><dc:type rdf:resource="http://purl.org/dc/dcmitype/StillImage"/></cc:Work></rdf:RDF></metadata><defs id="defs6"/><sodipodi:namedview pagecolor="#ffffff" bordercolor="#666666" borderopacity="1" objecttolerance="10" gridtolerance="10" guidetolerance="10" inkscape:pageopacity="0" inkscape:pageshadow="2" inkscape:window-width="640" inkscape:window-height="480" id="namedview4"/><g id="g10" inkscape:groupmode="layer" inkscape:label="ink_ext_XXXXXX" transform="matrix(1.3333333,0,0,-1.3333333,0,241.33333)"><g id="g12" transform="scale(0.1)"><path d="m 697.867,121.32 c 14.117,0 21.184,-7.246 21.184,-21.7887 0,-14.1836 -7.188,-21.2969 -21.551,-21.2969 h -14.727 c -43.148,0 -64.695,22.0356 -64.695,66.1566 v 142.398 c 0,14.426 7.184,21.609 21.547,21.609 14.484,0.122 21.664,-7.062 21.543,-21.546 v -21.36 l 35.047,-0.179 c 15.101,0.121 22.644,-6.997 22.644,-21.36 0,-13.996 -7.296,-21.121 -21.906,-21.363 h -35.785 v -79.172 c 0,-14.613 7.305,-21.914 21.91,-21.914 z m 193.828,0 c 14.18,0 21.246,-7.246 21.246,-21.7887 0,-14.1836 -7.187,-21.2969 -21.613,-21.2969 H 819.09 c -43.145,0 -64.695,22.0976 -64.695,66.2306 v 99.234 c 0,14.426 7.187,21.614 21.55,21.614 h 114.16 c 15.098,0.121 22.649,-6.997 22.649,-21.36 -0.25,-14.117 -7.609,-21.242 -22.094,-21.363 H 797.48 V 193.5 l 64.579,0.367 c 14.601,-0.246 21.902,-7.676 21.902,-22.281 0.129,-13.996 -6.992,-20.992 -21.356,-20.992 l -65.125,-0.18 v -7.187 c 0,-14.606 7.309,-21.907 21.918,-21.907 z m 62.973,107.227 c -9.691,11.051 -9.324,21.297 1.238,30.746 10.914,9.516 21.293,8.773 31.114,-2.148 l 39.03,-49.778 39.22,49.778 c 9.82,10.921 20.14,11.664 30.87,2.148 10.69,-9.57 11.18,-19.828 1.48,-30.746 l -44.07,-56.102 44.26,-56.285 c 9.44,-10.863 8.96,-21.2342 -1.47,-31.1131 -10.87,-9.4571 -21.13,-8.7813 -30.76,2.0273 L 1026.05,137.398 986.465,87.0742 C 977.016,76.2656 966.82,75.5898 955.906,85.0469 945.465,94.9258 945.039,105.297 954.488,116.16 l 44.192,56.285 -44.012,56.102" style="fill:#fab40a;fill-opacity:1;fill-rule:nonzero;stroke:none" id="path14"/><path d="m 1279.71,208.367 c 0,-14.605 -7.05,-21.906 -21.17,-21.906 -14.6,0 -21.91,7.238 -21.91,21.785 v 13.934 h -35.54 c -14.61,0 -21.91,-7.367 -21.91,-22.157 v -99.855 c 0,-14.6758 -7.18,-21.9766 -21.54,-21.9766 -14.36,0 -21.55,7.1797 -21.55,21.6016 v 99.309 c 0,44.132 21.55,66.164 64.64,66.164 h 57.45 c 14.36,0 21.53,-7.063 21.53,-21.172 z m 173.7,-87.09 c 14.18,0 21.25,-7.246 21.25,-21.7926 0,-14.1758 -7.19,-21.293 -21.61,-21.293 h -72.24 c -43.15,0 -64.7,22.0976 -64.7,66.2266 v 99.242 c 0,14.422 7.19,21.606 21.55,21.606 h 114.16 c 15.1,0.125 22.66,-6.993 22.66,-21.356 -0.26,-14.117 -7.62,-21.242 -22.1,-21.363 h -93.18 v -29.09 l 64.57,0.363 c 14.61,-0.242 21.91,-7.672 21.91,-22.277 0.13,-13.996 -7,-20.992 -21.36,-20.992 l -65.12,-0.184 v -7.183 c 0,-14.606 7.31,-21.907 21.91,-21.907 z m 214.89,-21.109 c 0,-14.6758 -7,-21.9766 -20.99,-21.9766 -14.73,0 -22.1,7.3008 -22.1,21.9766 v 35.84 l -71.26,0.18 -0.18,-36.02 c 0,-14.6758 -7.18,-21.9766 -21.54,-21.9766 -14.37,0 -21.55,7.1797 -21.55,21.6016 v 99.309 c 0,44.132 21.55,66.164 64.63,66.164 h 71.44 c 14.37,0 21.55,-7.063 21.55,-21.235 z m -43.09,79.293 v 42.719 h -49.53 c -14.61,0 -21.91,-7.367 -21.91,-22.094 v -20.625 z m 238.4,-79.367 c 0,-14.6018 -7.07,-21.9026 -21.18,-21.9026 h -72.18 c -43.33,0 -65,21.6016 -65,64.7466 v 56.164 c 0,44.132 21.55,66.164 64.63,66.164 h 50.64 v 35.906 c 0,14.613 7.18,21.91 21.54,21.91 14.36,0 21.55,-7.113 21.55,-21.414 z m -43.09,21.551 V 222.18 h -50.27 c -14.61,0 -21.92,-7.367 -21.92,-22.094 v -57.574 c 0,-13.934 7.31,-20.867 21.92,-20.867 z m 216.47,129.625 c 14.12,0 21.18,-7.239 21.18,-21.723 V 70.0234 c 0,-42.4101 -21.54,-63.64449 -64.69,-63.64449 h -44.93 c -13.81,0 -20.74,7.23829 -20.86,21.60159 -0.26,14.3633 6.62,21.4843 20.49,21.4843 h 51.44 c 10.31,-0.25 15.47,4.6641 15.47,14.7305 h -50.64 c -43.09,0 -64.64,22.0938 -64.64,66.2267 v 99.246 c 0,14.426 7.19,21.602 21.55,21.602 14.36,0 21.54,-7.239 21.54,-21.79 v -99.859 c 0,-14.91 7.31,-22.34 21.92,-22.34 h 50.27 V 229.48 c 0,14.551 7.3,21.79 21.9,21.79" style="fill:#918f8f;fill-opacity:1;fill-rule:nonzero;stroke:none" id="path16"/><path d="m 8.38281,1372.92 c 0,-111.76 54.00779,-167.65 162.04319,-167.65 111.75,0 167.64,55.41 167.64,166.72 v 106.6 h 271.93 c 111.762,0 167.645,-56.35 167.645,-169.54 V 556.52 544.973 c 0,-112.246 54.953,-168.129 164.851,-168.129 109.898,0 164.828,54.937 164.828,165.304 v 14.372 357.085 388.415 176.57 147.37 182.32 H 1038.23 925.012 777.641 612.809 468.504 173.234 C 63.3359,1808.28 8.38281,1754.27 8.38281,1646.25 v -273.33" style="fill:#fab40a;fill-opacity:1;fill-rule:nonzero;stroke:none" id="path18"/><path d="m 2206.26,1372.92 c 0,-111.76 -54.01,-167.65 -162.04,-167.65 -111.75,0 -167.64,55.41 -167.64,166.72 v 106.6 h -271.93 c -111.76,0 -167.64,-56.35 -167.64,-169.54 V 556.52 544.973 c 0,-112.246 -54.96,-168.129 -164.85,-168.129 -109.9,0 -164.84,54.937 -164.84,165.304 v 14.372 357.085 388.415 176.57 147.37 182.32 h 69.1 113.21 147.38 164.83 144.3 295.27 c 109.9,0 164.85,-54.01 164.85,-162.03 v -273.33" style="fill:#918f8f;fill-opacity:1;fill-rule:nonzero;stroke:none" id="path20"/><path d="M 2063.11,335.438 H 618.078 v 17.398 H 2063.11 v -17.398" style="fill:#918f8f;fill-opacity:1;fill-rule:nonzero;stroke:none" id="path22"/><path d="M 1898.92,16.8711 H 618.078 V 34.2695 H 1898.92 V 16.8711" style="fill:#918f8f;fill-opacity:1;fill-rule:nonzero;stroke:none" id="path24"/></g></g><script xmlns=""/></svg>