<?xml version="1.0" standalone="no"?>
<!DOCTYPE svg PUBLIC "-//W3C//DTD SVG 20010904//EN"
 "http://www.w3.org/TR/2001/REC-SVG-20010904/DTD/svg10.dtd">
<svg version="1.0" xmlns="http://www.w3.org/2000/svg"
 width="512.000000pt" height="512.000000pt" viewBox="0 0 512.000000 512.000000"
 preserveAspectRatio="xMidYMid meet">
<metadata>
Created by potrace 1.14, written by Peter Selinger 2001-2017
</metadata>
<g transform="translate(0.000000,512.000000) scale(0.100000,-0.100000)"
fill="#000000" stroke="none">
<path d="M2173 4218 c-17 -18 -96 -98 -177 -177 l-146 -145 -1 -110 c0 -61 0
-141 1 -178 l1 -68 -368 -1 c-202 0 -381 -2 -398 -4 -169 -22 -311 -188 -306
-359 0 -21 -5 -46 -12 -54 -7 -9 -7 -13 -1 -9 8 5 11 -248 12 -942 0 -793 3
-996 17 -1061 0 -3 11 -24 23 -47 12 -24 19 -43 15 -44 -5 0 2 -4 15 -9 12 -5
22 -16 22 -25 0 -8 6 -15 13 -15 17 0 60 -47 53 -59 -4 -5 -1 -13 5 -17 7 -4
9 -3 5 4 -10 16 10 24 26 10 7 -7 22 -15 33 -16 11 -2 22 -7 25 -10 6 -9 35
-11 128 -12 53 -1 71 -4 65 -13 -5 -9 -3 -9 8 0 19 16 241 15 251 -1 6 -8 8
-7 8 2 0 16 67 16 73 0 4 -10 6 -10 6 0 1 7 14 12 32 12 21 0 28 -4 23 -13 -6
-9 -5 -9 7 -1 20 17 163 18 153 1 -6 -9 -4 -9 7 -1 18 15 122 18 113 3 -3 -6
3 -5 14 2 17 11 24 10 38 -2 11 -9 15 -9 10 -1 -5 9 3 12 29 12 26 0 34 -3 29
-12 -6 -10 -5 -10 7 -1 19 15 228 15 248 -1 11 -8 13 -8 7 2 -5 9 3 12 29 12
26 0 34 -3 29 -13 -6 -9 -5 -9 7 0 19 16 241 15 251 -1 6 -8 8 -7 8 2 0 16 67
16 73 0 4 -10 6 -10 6 0 1 16 53 16 70 0 11 -10 13 -10 7 -1 -5 9 3 13 29 13
26 0 34 -3 29 -13 -6 -9 -5 -9 7 0 19 16 241 15 251 -1 6 -8 8 -7 8 2 0 16 67
16 73 0 4 -10 6 -10 6 0 1 16 68 16 74 0 4 -10 6 -10 6 0 1 16 68 16 74 0 4
-10 6 -10 6 0 1 6 14 12 29 12 15 0 34 -6 41 -12 11 -10 13 -10 7 0 -5 8 3 12
29 12 26 0 34 -3 29 -13 -6 -9 -5 -9 7 0 19 16 241 15 251 -1 6 -8 8 -7 8 2 0
7 14 12 35 12 21 0 35 -5 35 -12 0 -10 2 -10 8 -1 10 16 145 17 136 0 -5 -9
-3 -9 7 1 7 6 34 12 60 12 25 0 64 6 85 14 22 7 47 12 57 10 9 -1 15 1 12 6
-8 12 23 33 37 24 7 -4 10 -4 6 1 -10 11 32 46 45 38 6 -3 7 -1 3 5 -4 7 -2
12 3 12 6 0 10 6 8 13 -1 6 4 11 10 10 7 -2 12 0 11 5 -1 4 8 26 20 50 15 28
27 40 35 35 8 -4 7 -1 -1 10 -8 9 -10 22 -6 29 5 7 10 20 11 28 2 8 3 479 3
1045 0 735 -3 1041 -11 1065 -39 121 -109 198 -216 242 l-68 27 -285 0 c-157
1 -331 1 -387 1 l-102 0 0 54 c1 30 -2 59 -5 65 -4 5 -2 12 3 16 7 3 7 15 1
29 -5 13 -6 26 -4 29 4 4 6 105 2 151 -1 8 -81 94 -178 190 l-176 176 -361 0
-360 0 -30 -32z m170 -327 c5 -1 5 -7 2 -13 -4 -7 -1 -6 7 3 18 22 44 13 26
-9 -11 -14 -9 -14 8 1 27 22 99 24 90 1 -3 -8 -2 -12 4 -9 6 3 10 12 10 18 0
9 45 11 176 9 152 -3 175 -5 170 -18 -3 -9 -1 -12 4 -9 6 3 10 12 10 20 0 10
7 12 29 5 21 -6 31 -5 34 3 3 7 4 -7 2 -30 -1 -24 2 -43 6 -43 5 0 5 -10 1
-22 -8 -24 -7 -77 2 -115 2 -13 2 -23 -2 -23 -8 0 -7 -78 1 -86 3 -3 3 -12 0
-20 -4 -12 -65 -14 -359 -14 l-355 0 2 175 c1 137 4 175 15 175 7 0 11 -8 9
-20 -2 -11 0 -22 5 -25 5 -3 7 4 5 15 -6 30 22 38 98 31z"/>
<path d="M2266 3858 c3 -5 10 -6 15 -3 13 9 11 12 -6 12 -8 0 -12 -4 -9 -9z"/>
<path d="M2307 3859 c7 -7 15 -10 18 -7 3 3 -2 9 -12 12 -14 6 -15 5 -6 -5z"/>
<path d="M2596 3842 c-3 -5 1 -9 9 -9 8 0 12 4 9 9 -3 4 -7 8 -9 8 -2 0 -6 -4
-9 -8z"/>
<path d="M4230 939 c0 -5 5 -7 10 -4 6 3 10 8 10 11 0 2 -4 4 -10 4 -5 0 -10
-5 -10 -11z"/>
<path d="M896 927 c3 -10 9 -15 12 -12 3 3 0 11 -7 18 -10 9 -11 8 -5 -6z"/>
<path d="M4080 855 c-7 -9 -11 -17 -9 -20 3 -2 10 5 17 15 14 24 10 26 -8 5z"/>
<path d="M1249 843 c-13 -16 -12 -17 4 -4 9 7 17 15 17 17 0 8 -8 3 -21 -13z"/>
<path d="M1315 850 c-4 -6 -11 -7 -17 -4 -7 4 -8 2 -4 -5 6 -9 11 -9 22 0 14
11 18 19 10 19 -3 0 -8 -5 -11 -10z"/>
<path d="M1455 850 c-4 -6 -10 -8 -15 -5 -5 3 -11 1 -14 -4 -8 -13 22 -7 36 7
7 7 9 12 6 12 -4 0 -10 -5 -13 -10z"/>
<path d="M1529 843 c-13 -16 -12 -17 4 -4 16 13 21 21 13 21 -2 0 -10 -8 -17
-17z"/>
<path d="M1649 843 c-13 -16 -12 -17 4 -4 16 13 21 21 13 21 -2 0 -10 -8 -17
-17z"/>
<path d="M1715 850 c-4 -6 -11 -7 -17 -4 -7 4 -8 2 -4 -5 6 -9 11 -9 22 0 14
11 18 19 10 19 -3 0 -8 -5 -11 -10z"/>
<path d="M1748 853 c7 -3 16 -2 19 1 4 3 -2 6 -13 5 -11 0 -14 -3 -6 -6z"/>
<path d="M1809 843 c-13 -16 -12 -17 4 -4 16 13 21 21 13 21 -2 0 -10 -8 -17
-17z"/>
<path d="M2049 843 c-13 -16 -12 -17 4 -4 16 13 21 21 13 21 -2 0 -10 -8 -17
-17z"/>
<path d="M2115 850 c-4 -6 -11 -7 -17 -4 -7 4 -8 2 -4 -5 6 -9 11 -9 22 0 14
11 18 19 10 19 -3 0 -8 -5 -11 -10z"/>
<path d="M2369 843 c-13 -16 -12 -17 4 -4 9 7 17 15 17 17 0 8 -8 3 -21 -13z"/>
<path d="M2435 850 c-4 -6 -11 -7 -17 -4 -7 4 -8 2 -4 -5 6 -9 11 -9 22 0 14
11 18 19 10 19 -3 0 -8 -5 -11 -10z"/>
<path d="M2575 850 c-4 -6 -11 -7 -17 -4 -7 4 -8 2 -4 -5 6 -9 11 -9 22 0 14
11 18 19 10 19 -3 0 -8 -5 -11 -10z"/>
<path d="M2649 843 c-13 -16 -12 -17 4 -4 16 13 21 21 13 21 -2 0 -10 -8 -17
-17z"/>
<path d="M2849 843 c-13 -16 -12 -17 4 -4 9 7 17 15 17 17 0 8 -8 3 -21 -13z"/>
<path d="M2915 850 c-4 -6 -11 -7 -17 -4 -7 4 -8 2 -4 -5 6 -9 11 -9 22 0 14
11 18 19 10 19 -3 0 -8 -5 -11 -10z"/>
<path d="M3055 850 c-4 -6 -10 -8 -15 -5 -5 3 -11 1 -14 -4 -8 -13 22 -7 36 7
7 7 9 12 6 12 -4 0 -10 -5 -13 -10z"/>
<path d="M3129 843 c-13 -16 -12 -17 4 -4 16 13 21 21 13 21 -2 0 -10 -8 -17
-17z"/>
<path d="M3209 843 c-13 -16 -12 -17 4 -4 9 7 17 15 17 17 0 8 -8 3 -21 -13z"/>
<path d="M3289 843 c-13 -16 -12 -17 4 -4 16 13 21 21 13 21 -2 0 -10 -8 -17
-17z"/>
<path d="M3489 843 c-13 -16 -12 -17 4 -4 16 13 21 21 13 21 -2 0 -10 -8 -17
-17z"/>
<path d="M3555 850 c-4 -6 -11 -7 -17 -4 -7 4 -8 2 -4 -5 6 -9 11 -9 22 0 14
11 18 19 10 19 -3 0 -8 -5 -11 -10z"/>
<path d="M3695 850 c-4 -6 -10 -8 -15 -5 -5 3 -11 1 -14 -4 -8 -13 22 -7 36 7
7 7 9 12 6 12 -4 0 -10 -5 -13 -10z"/>
<path d="M3769 843 c-13 -16 -12 -17 4 -4 9 7 17 15 17 17 0 8 -8 3 -21 -13z"/>
<path d="M3969 843 c-13 -16 -12 -17 4 -4 16 13 21 21 13 21 -2 0 -10 -8 -17
-17z"/>
<path d="M4034 828 l-19 -23 23 19 c21 18 27 26 19 26 -2 0 -12 -10 -23 -22z"/>
<path d="M1910 836 c0 -2 8 -10 18 -17 15 -13 16 -12 3 4 -13 16 -21 21 -21
13z"/>
<path d="M1350 826 c0 -2 7 -7 16 -10 8 -3 12 -2 9 4 -6 10 -25 14 -25 6z"/>
<path d="M1855 820 c3 -5 8 -10 11 -10 2 0 4 5 4 10 0 6 -5 10 -11 10 -5 0 -7
-4 -4 -10z"/>
<path d="M2150 826 c0 -2 7 -7 16 -10 8 -3 12 -2 9 4 -6 10 -25 14 -25 6z"/>
<path d="M2470 826 c0 -2 7 -7 16 -10 8 -3 12 -2 9 4 -6 10 -25 14 -25 6z"/>
<path d="M2950 826 c0 -2 7 -7 16 -10 8 -3 12 -2 9 4 -6 10 -25 14 -25 6z"/>
<path d="M3590 826 c0 -2 7 -7 16 -10 8 -3 12 -2 9 4 -6 10 -25 14 -25 6z"/>
</g>
</svg>
